<svg xmlns="http://www.w3.org/2000/svg" width="85" height="85" viewBox="0 0 85 85">
  <g id="c1" transform="translate(63 7146.667)">
    <g id="layer2" transform="translate(-63 -7146.667)">
      <path id="path6751" d="M78.708,5.821a4.241,4.241,0,0,1,4.25,4.25v46.75a4.241,4.241,0,0,1-4.25,4.25H5.75a5.012,5.012,0,0,1-4.924-4.6c0-18.5-.032-32.229-.032-50.646" transform="translate(0.625 22.513)" fill="#e4eff8"/>
      <path id="path6753" d="M82.693,56.677a4.241,4.241,0,0,1-4.25,4.25H5.484a5.179,5.179,0,0,1-4.629-3.2,4.718,4.718,0,0,0,1.8.371H75.609a4.241,4.241,0,0,0,4.25-4.25V7.074a4.215,4.215,0,0,0-.2-1.22,4.227,4.227,0,0,1,3.03,4.054Z" transform="translate(0.891 22.656)" fill="#c4dcf0"/>
      <path id="path6755" d="M.794,9.635a5.667,5.667,0,0,1,11.333,0V54.969a4.241,4.241,0,0,1-4.25,4.25H5.752A4.947,4.947,0,0,0,.794,64.177Z" transform="translate(0.623 14.448)" fill="#ba68c8"/>
      <path id="path6757" d="M12.127,54.566a4.241,4.241,0,0,1-4.25,4.25H5.752A4.947,4.947,0,0,0,.794,63.775v-7.3a4.934,4.934,0,0,1,2.125-.49H5.044a4.241,4.241,0,0,0,4.25-4.25V6.388a5.652,5.652,0,0,0-.506-2.327,5.646,5.646,0,0,1,3.34,5.16Z" transform="translate(0.623 14.851)" fill="#9453a0"/>
      <path id="path6759" d="M15.456,13.417a2.833,2.833,0,1,1-2.833-2.833A2.833,2.833,0,0,1,15.456,13.417Z" transform="translate(39.794 43.25)" fill="#64b5f6"/>
      <path id="path6761" d="M37.969,17.794a17,17,0,1,1-17-17A17,17,0,0,1,37.969,17.794Z" transform="translate(14.448 0.623)" fill="#fef536"/>
      <path id="path6763" d="M17.965.794A17,17,0,0,0,4.659,7.243,16.984,16.984,0,0,1,28.438,31.177,17,17,0,0,0,17.965.794Z" transform="translate(17.452 0.623)" fill="#fffba3"/>
      <path id="path6765" d="M12.281,11.3A2.833,2.833,0,1,1,9.448,8.467,2.833,2.833,0,0,1,12.281,11.3Z" transform="translate(25.969 34.033)" fill="#64b5f6"/>
      <path id="path6767" d="M14.117,7.408h5.667A1.414,1.414,0,0,1,21.2,8.825v4.25a1.414,1.414,0,0,1-1.417,1.417H14.117A1.414,1.414,0,0,1,12.7,13.075V8.825A1.414,1.414,0,0,1,14.117,7.408Z" transform="translate(52.467 29.425)" fill="#ba68c8"/>
      <path id="path6769" d="M14.117,7.408A1.414,1.414,0,0,0,12.7,8.825v4.25a1.414,1.414,0,0,0,1.417,1.417h5.667A1.414,1.414,0,0,0,21.2,13.075V11.658H16.95a1.414,1.414,0,0,1-1.417-1.417V7.408Z" transform="translate(52.467 29.425)" fill="#9453a0"/>
      <path id="path6771" d="M13.494,2.618,27.66,9.7,13.494,15.368" transform="translate(55.923 8.566)" fill="#64b5f6"/>
      <g id="Group_132339" data-name="Group 132339" transform="translate(32.583 11.184)">
        <path id="path6773" d="M13.494,2.618v12.75l2.833-1.134V4.035Z" transform="translate(23.34 -2.618)" fill="#3c6c93"/>
        <path id="path6775" d="M11.7,10.614a2.827,2.827,0,1,0,3.7,3.21,2.815,2.815,0,0,1-3.7-3.21Z" transform="translate(7.211 32.201)" fill="#3c6c93"/>
        <path id="path6777" d="M8.529,8.5a2.827,2.827,0,1,0,3.7,3.21,2.815,2.815,0,0,1-3.7-3.21Z" transform="translate(-6.615 22.984)" fill="#3c6c93"/>
      </g>
      <path id="path6779" d="M17.529,18.946a18.279,18.279,0,0,0,2.084,8.5H14.7V24.615a7.086,7.086,0,0,0-14.172,0V79.151A6.364,6.364,0,0,0,6.91,85.529H79.863a5.664,5.664,0,0,0,5.667-5.667V33.115a5.654,5.654,0,0,0-5.667-5.667h-8.5V25.42l13.281-5.312a1.417,1.417,0,0,0,.1-2.573l-13.386-6.7v-.393a1.417,1.417,0,1,0-2.833,0V27.449H52.271a18.412,18.412,0,1,0-34.741-8.5ZM69.927.529a1.417,1.417,0,0,0-1.4,1.433V3.385a1.417,1.417,0,0,0,2.833,0V1.963A1.416,1.416,0,0,0,69.927.529ZM35.951,3.365A15.581,15.581,0,1,1,20.363,18.946,15.585,15.585,0,0,1,35.951,3.365ZM62.273,6.26l1,1a1.419,1.419,0,0,0,2.009-2.006l-1-1a1.349,1.349,0,0,0-.989-.413A1.415,1.415,0,0,0,62.273,6.26ZM75.626,4.254l-1,1a1.419,1.419,0,0,0,2.009,2.006l1-1a1.419,1.419,0,0,0-1.051-2.418,1.361,1.361,0,0,0-.957.412Zm-41.1,4.778v9.914a1.417,1.417,0,0,0,.42,1l4.244,4.244a1.417,1.417,0,0,0,2.009-2l-3.838-3.838V9.032a1.418,1.418,0,0,0-2.836,0ZM71.36,14.01l9.3,4.643-9.3,3.719ZM7.61,20.357a4.253,4.253,0,0,1,4.256,4.258V69.949a2.836,2.836,0,0,1-2.833,2.833H6.91a6.367,6.367,0,0,0-3.544,1.06V24.615A4.244,4.244,0,0,1,7.61,20.357ZM14.7,30.282h6.729a18.421,18.421,0,0,0,29.033,0H68.527v5.669H67.116a2.825,2.825,0,0,0-2.836,2.833v4.244a1.42,1.42,0,1,0,0,2.836h2.756L55.84,54.086a4.241,4.241,0,0,0-5.722-.064l-10.03-7.236a4.156,4.156,0,0,0,.108-.921,4.251,4.251,0,1,0-8.5,0,4.119,4.119,0,0,0,.152,1.051L18.077,57.492a1.417,1.417,0,1,0,1.738,2.238l13.6-10.453A4.261,4.261,0,0,0,38.58,49.2l10.168,7.33a4.64,4.64,0,0,0-.048.672,4.251,4.251,0,0,0,8.5,0,3.975,3.975,0,0,0-.043-.567L71.823,45.865h3.794a1.418,1.418,0,0,0,0-2.836V38.785a2.837,2.837,0,0,0-2.833-2.833H71.36V30.282h8.5A2.817,2.817,0,0,1,82.7,33.115V79.863A2.824,2.824,0,0,1,79.863,82.7H6.91a3.54,3.54,0,1,1,0-7.081H9.033A5.668,5.668,0,0,0,14.7,69.949ZM50.11,38.774a1.424,1.424,0,0,0-1,2.427l1.126,1.121-1.126,1.126a1.417,1.417,0,0,0,2.009,2l1.121-1.121,1.126,1.121a1.413,1.413,0,1,0,2-2l-1.121-1.126L55.359,41.2a1.416,1.416,0,0,0-1.013-2.427,1.431,1.431,0,0,0-.985.418l-1.126,1.126-1.121-1.126a1.381,1.381,0,0,0-1-.418Zm17.006.011h5.667V43.03H67.116ZM35.952,44.441a1.422,1.422,0,0,1,1.411,1.425,1.407,1.407,0,0,1-1.411,1.411,1.418,1.418,0,1,1,0-2.836Zm35.419,8.5a1.415,1.415,0,0,0-1.015,2.416l1.126,1.126-1.126,1.123a1.42,1.42,0,1,0,2.009,2.009l1.121-1.126,1.126,1.126a1.417,1.417,0,0,0,2-2.009L75.5,56.485l1.123-1.126a1.416,1.416,0,0,0-1.046-2.416,1.379,1.379,0,0,0-.963.418l-1.126,1.123-1.121-1.123a1.356,1.356,0,0,0-.993-.418ZM52.943,55.777A1.418,1.418,0,1,1,51.532,57.2,1.421,1.421,0,0,1,52.943,55.777ZM26.016,61.435a1.416,1.416,0,0,0-.775.241L21,64.509a1.419,1.419,0,1,0,1.569,2.366l3.461-2.313L29.5,66.875a1.417,1.417,0,0,0,1.566,0l3.461-2.313,3.464,2.313a1.417,1.417,0,0,0,1.577,0l3.461-2.313,3.461,2.313a1.419,1.419,0,1,0,1.569-2.366l-4.244-2.833a1.417,1.417,0,0,0-1.569,0l-3.461,2.31-3.472-2.31a1.417,1.417,0,0,0-1.569,0l-3.461,2.31-3.472-2.31a1.416,1.416,0,0,0-.794-.241Zm35.431,5.678a1.417,1.417,0,1,0,0,2.833h1.417a1.417,1.417,0,1,0,0-2.833Zm7.083,0a1.417,1.417,0,1,0,0,2.833h1.417a1.417,1.417,0,1,0,0-2.833Zm7.083,0a1.417,1.417,0,1,0,0,2.833h1.417a1.417,1.417,0,1,0,0-2.833Zm-49.6,1.414a1.416,1.416,0,0,0-.775.241L21,71.59a1.418,1.418,0,1,0,1.569,2.363l3.461-2.31,3.472,2.31a1.417,1.417,0,0,0,1.566,0l3.461-2.31,3.464,2.31a1.417,1.417,0,0,0,1.577,0l3.461-2.31,3.461,2.31A1.418,1.418,0,1,0,48.06,71.59l-4.244-2.822a1.417,1.417,0,0,0-1.569,0l-3.461,2.3-3.472-2.3a1.417,1.417,0,0,0-1.569,0l-3.461,2.3-3.472-2.3a1.416,1.416,0,0,0-.794-.241Z" transform="translate(-0.529 -0.529)"/>
    </g>
  </g>
</svg>
