<svg xmlns="http://www.w3.org/2000/svg" xmlns:xlink="http://www.w3.org/1999/xlink" width="400.46" height="608.436" viewBox="0 0 400.46 608.436">
  <defs>
    <clipPath id="clip-path">
      <rect id="Rectangle_41511" data-name="Rectangle 41511" width="400" height="602" transform="translate(180 3948)" fill="#fff" stroke="#707070" stroke-width="1"/>
    </clipPath>
    <clipPath id="clip-path-2">
      <rect id="Rectangle_33883" data-name="Rectangle 33883" width="400.46" height="568.58" transform="translate(-1874.851 603.205)" fill="none"/>
    </clipPath>
  </defs>
  <g id="img16" transform="translate(-179.54 -3948)">
    <g id="Mask_Group_44" data-name="Mask Group 44" clip-path="url(#clip-path)">
      <g id="Group_132279" data-name="Group 132279">
        <g id="Group_80745" data-name="Group 80745" transform="translate(0 -382)">
          <g id="Grupo_80276" data-name="Grupo 80276" transform="translate(498.215 4835.778) rotate(1)">
            <path id="Trazado_115035" data-name="Trazado 115035" d="M50.62,23.186c.794.457.929.623-.024,2.678-.741,1.6-2.113,4.567,1.192,6.469,2.58,1.489,5.783.993,8.889.512,2.718-.417,5.288-.812,6.965.157A1.472,1.472,0,0,0,69.2,30.5c-.026-.016-.053-.032-.081-.047-2.581-1.489-5.784-.993-8.889-.512-2.718.417-5.288.812-6.966-.156-.793-.457-.929-.624.024-2.679.741-1.6,2.113-4.567-1.192-6.469-2.569-1.49-5.783-.993-8.889-.52-2.718.417-5.3.812-6.973-.157-.794-.457-.929-.624.024-2.679.741-1.6,2.112-4.567-1.174-6.469-2.581-1.489-5.792-.993-8.9-.512-2.718.417-5.287.812-6.965-.149-.794-.457-.929-.629.024-2.687C19.982,5.867,21.354,2.9,18.068,1A8.356,8.356,0,0,0,13.8.006,30.982,30.982,0,0,0,9.17.486C6.452.9,3.882,1.3,2.205.337A1.472,1.472,0,1,0,.739,2.89c2.581,1.481,5.784.993,8.882.512,2.718-.417,5.3-.82,6.973.157.795.457.93.629-.024,2.687-.74,1.6-2.112,4.567,1.192,6.477,2.581,1.481,5.784.993,8.882.512,2.718-.417,5.3-.82,6.973.157.794.456.929.623-.024,2.678-.741,1.6-2.113,4.567,1.173,6.47,2.581,1.489,5.784.993,8.89.52,2.718-.417,5.287-.812,6.965.157Z" transform="translate(0 0)" fill="#393939"/>
            <path id="Trazado_115036" data-name="Trazado 115036" d="M34.765,22.509c2.581,1.489,5.784.993,8.89.52,2.718-.417,5.287-.812,6.965.157.794.457.929.623-.024,2.679-.741,1.6-2.113,4.567,1.191,6.469,2.581,1.489,5.784.993,8.89.52,2.718-.417,5.288-.812,6.965.157a1.471,1.471,0,0,0,1.474-2.546c-2.581-1.489-5.784-.993-8.889-.52-2.719.417-5.288.812-6.966-.157-.794-.457-.929-.624.024-2.679.74-1.6,2.112-4.567-1.192-6.469-2.569-1.489-5.784-.993-8.889-.52-2.719.417-5.3.812-6.974-.157-.794-.457-.929-.624.024-2.679.741-1.6,2.112-4.567-1.173-6.469-2.581-1.489-5.793-.993-8.9-.512-2.719.417-5.288.812-6.966-.149-.794-.456-.929-.629.024-2.686C19.982,5.867,21.354,2.9,18.068,1A8.35,8.35,0,0,0,13.8.006a31.28,31.28,0,0,0-4.626.48C6.452.9,3.882,1.3,2.205.337A1.472,1.472,0,0,0,.739,2.891c2.581,1.481,5.784.993,8.882.512,2.718-.417,5.3-.811,6.973.157.794.457.929.632-.024,2.687-.741,1.6-2.113,4.567,1.192,6.469,2.581,1.481,5.784.993,8.882.512,2.718-.417,5.3-.812,6.973.157.794.457.929.624-.024,2.679-.741,1.6-2.113,4.567,1.173,6.469Z" transform="translate(12.305 38.787)" fill="#fef536"/>
          </g>
          <g id="Grupo_80276-2" data-name="Grupo 80276" transform="translate(182.898 4783.778) rotate(1)">
            <path id="Trazado_115035-2" data-name="Trazado 115035" d="M44.389,20.332c.7.4.815.546-.021,2.349-.65,1.4-1.853,4,1.045,5.673,2.263,1.306,5.071.87,7.8.449,2.383-.366,4.637-.712,6.108.138a1.291,1.291,0,0,0,1.363-2.192l-.071-.041c-2.264-1.306-5.072-.87-7.8-.449-2.384.366-4.637.712-6.108-.137-.7-.4-.815-.547.021-2.349.65-1.4,1.853-4-1.045-5.673-2.252-1.306-5.071-.87-7.8-.456-2.383.365-4.644.712-6.115-.138-.7-.4-.815-.547.021-2.349.649-1.4,1.852-4-1.029-5.673-2.264-1.306-5.079-.871-7.8-.449-2.383.366-4.636.712-6.108-.131-.7-.4-.815-.552.021-2.356.65-1.4,1.853-4-1.029-5.673A7.327,7.327,0,0,0,12.1.005,27.168,27.168,0,0,0,8.041.426C5.658.792,3.4,1.138,1.934.3A1.291,1.291,0,1,0,.648,2.535c2.264,1.3,5.072.871,7.789.449,2.384-.366,4.644-.719,6.115.138.7.4.815.552-.021,2.356-.649,1.4-1.852,4,1.045,5.68,2.264,1.3,5.072.87,7.789.449,2.384-.365,4.644-.719,6.115.138.7.4.815.546-.021,2.349-.65,1.4-1.853,4,1.029,5.673,2.264,1.306,5.072.871,7.8.456,2.384-.366,4.636-.712,6.108.138Z" transform="translate(0 0)" fill="#393939"/>
            <path id="Trazado_115036-2" data-name="Trazado 115036" d="M30.486,19.738c2.263,1.306,5.072.871,7.8.456,2.383-.365,4.636-.712,6.108.138.7.4.815.546-.021,2.349-.649,1.4-1.853,4,1.045,5.673,2.264,1.306,5.072.87,7.8.456,2.384-.366,4.637-.712,6.108.138a1.29,1.29,0,0,0,1.292-2.232c-2.264-1.306-5.072-.871-7.8-.456-2.384.365-4.637.712-6.108-.138-.7-.4-.814-.547.021-2.349.649-1.4,1.852-4-1.045-5.673-2.253-1.306-5.072-.87-7.795-.456-2.384.366-4.644.712-6.115-.138-.7-.4-.814-.547.021-2.349.649-1.4,1.852-4-1.029-5.673-2.264-1.306-5.08-.871-7.8-.449-2.384.366-4.637.712-6.108-.131-.7-.4-.815-.552.021-2.356.65-1.4,1.853-4-1.029-5.672A7.322,7.322,0,0,0,12.1.005,27.43,27.43,0,0,0,8.042.426C5.658.792,3.4,1.139,1.934.3A1.291,1.291,0,0,0,.648,2.535c2.264,1.3,5.072.87,7.789.449,2.384-.365,4.644-.711,6.115.138.7.4.815.554-.021,2.356-.65,1.4-1.853,4,1.045,5.672,2.263,1.3,5.072.871,7.788.449,2.383-.366,4.644-.712,6.115.137.7.4.815.547-.021,2.349-.65,1.4-1.853,4,1.029,5.673Z" transform="translate(20.963 43.836)" fill="#fef536"/>
          </g>
          <g id="Ellipse_4785" data-name="Ellipse 4785" transform="translate(477 4333)" fill="#fff" stroke="#3a3a3a" stroke-width="1">
            <ellipse cx="9" cy="8.5" rx="9" ry="8.5" stroke="none"/>
            <ellipse cx="9" cy="8.5" rx="8.5" ry="8" fill="none"/>
          </g>
          <g id="Group_82467" data-name="Group 82467" transform="translate(265 4518)">
            <circle id="Ellipse_4783" data-name="Ellipse 4783" cx="12.5" cy="12.5" r="12.5" transform="translate(1 1)" fill="#3a3a3a"/>
            <g id="Ellipse_4784" data-name="Ellipse 4784" fill="#fff" stroke="#3a3a3a" stroke-width="1">
              <ellipse cx="11.5" cy="11" rx="11.5" ry="11" stroke="none"/>
              <ellipse cx="11.5" cy="11" rx="11" ry="10.5" fill="none"/>
            </g>
          </g>
        </g>
        <g id="Capa_8" data-name="Capa 8" transform="translate(2054.392 3330.795)">
          <g id="Grupo_80321" data-name="Grupo 80321">
            <path id="Trazado_115208" data-name="Trazado 115208" d="M-1517.767,754.7A195.4,195.4,0,0,1-1482.9,837c12.353,73.661-22.5,137.408-81.5,160.493-26.183,52.286-82.564,81.6-146.7,69.543-86.829-16.309-155-102.235-152.272-191.91.49-16.122,4.212-58.169,28.091-100.306a188.193,188.193,0,0,1,63.9-67.386c30.5-19.2,66.153-29.542,105.974-30.737,57.141-1.721,112.576,29.75,147.644,78Zm-31.34,183.513c.079-1.363.125-2.707.168-4.023C-1548.983,935.539-1549.033,936.877-1549.107,938.213Z" fill="#64b5f6"/>
            <g id="Sparkles">
              <path id="Trazado_115414" data-name="Trazado 115414" d="M-1711.332,1004.036l1.9-.162a.388.388,0,0,0,.36-.417v-.012a.378.378,0,0,0-.239-.329l-1.752-.738a2.051,2.051,0,0,1-1.247-1.716l-.164-1.9a.39.39,0,0,0-.417-.361h-.012a.379.379,0,0,0-.329.24l-.739,1.753a2.049,2.049,0,0,1-1.716,1.246l-1.9.164a.391.391,0,0,0-.361.418v.011a.381.381,0,0,0,.24.329l1.752.739a2.052,2.052,0,0,1,1.247,1.716l.161,1.9a.39.39,0,0,0,.418.36h.011a.378.378,0,0,0,.33-.239l.739-1.752A2.05,2.05,0,0,1-1711.332,1004.036Z" transform="translate(-130 20)" fill="#3d3d3d"/>
              <path id="Trazado_115415" data-name="Trazado 115415" d="M-1509.467,719.943l4.9-.412a1.022,1.022,0,0,0,.943-1.1v0a1.047,1.047,0,0,0-.633-.865l-4.538-1.906a5.313,5.313,0,0,1-3.238-4.469l-.412-4.9a1.035,1.035,0,0,0-1.119-.945,1.031,1.031,0,0,0-.867.629l-1.91,4.538a5.314,5.314,0,0,1-4.461,3.24l-4.906.42a1.023,1.023,0,0,0-.942,1.1v0a1.044,1.044,0,0,0,.631.867l4.538,1.908a5.314,5.314,0,0,1,3.24,4.455l.414,4.906a1.035,1.035,0,0,0,1.119.944,1.034,1.034,0,0,0,.867-.629l1.908-4.538A5.314,5.314,0,0,1-1509.467,719.943Z" transform="translate(18 -41.125)" fill="#3d3d3d"/>
              <path id="Trazado_115416" data-name="Trazado 115416" d="M-1673.265,875.389l1.41-.117a.3.3,0,0,0,.26-.335.3.3,0,0,0-.17-.234l-1.3-.545a1.533,1.533,0,0,1-.931-1.281l-.116-1.41a.3.3,0,0,0-.337-.258.3.3,0,0,0-.231.168l-.547,1.3a1.529,1.529,0,0,1-1.28.93l-1.411.117a.3.3,0,0,0-.26.336.3.3,0,0,0,.17.233l1.3.546a1.531,1.531,0,0,1,.931,1.28l.116,1.411a.3.3,0,0,0,.337.258.3.3,0,0,0,.231-.168l.547-1.306A1.532,1.532,0,0,1-1673.265,875.389Z" fill="#3d3d3d"/>
              <path id="Trazado_115417" data-name="Trazado 115417" d="M-1583.1,722.082l3.105-.259a.65.65,0,0,0,.6-.7v-.006a.639.639,0,0,0-.4-.543l-2.875-1.209a3.342,3.342,0,0,1-2.036-2.8l-.257-3.1a.659.659,0,0,0-.705-.592.7.7,0,0,0-.545.395l-1.207,2.871a3.345,3.345,0,0,1-2.8,2.034l-3.1.261a.652.652,0,0,0-.6.7v0a.641.641,0,0,0,.4.545l2.873,1.2a3.343,3.343,0,0,1,2.031,2.8l.261,3.107a.659.659,0,0,0,.705.594.691.691,0,0,0,.545-.4l1.2-2.871A3.341,3.341,0,0,1-1583.1,722.082Z" transform="translate(-38 -68)" fill="#3d3d3d"/>
              <path id="Trazado_115418" data-name="Trazado 115418" d="M-1555.448,1058.314l2.338-.2a.489.489,0,0,0,.445-.53.49.49,0,0,0-.3-.409l-2.163-.909a2.529,2.529,0,0,1-1.541-2.123l-.2-2.337a.49.49,0,0,0-.53-.446.491.491,0,0,0-.409.3l-.909,2.162a2.53,2.53,0,0,1-2.122,1.542l-2.337.2a.491.491,0,0,0-.446.531.491.491,0,0,0,.3.409l2.163.908a2.529,2.529,0,0,1,1.541,2.122l.2,2.338a.49.49,0,0,0,.531.445.488.488,0,0,0,.409-.3l.908-2.163A2.529,2.529,0,0,1-1555.448,1058.314Z" transform="translate(60 40)" fill="#3d3d3d"/>
              <path id="Trazado_115418-2" data-name="Trazado 115418" d="M-1555.448,1058.314l2.338-.2a.489.489,0,0,0,.445-.53.49.49,0,0,0-.3-.409l-2.163-.909a2.529,2.529,0,0,1-1.541-2.123l-.2-2.337a.49.49,0,0,0-.53-.446.491.491,0,0,0-.409.3l-.909,2.162a2.53,2.53,0,0,1-2.122,1.542l-2.337.2a.491.491,0,0,0-.446.531.491.491,0,0,0,.3.409l2.163.908a2.529,2.529,0,0,1,1.541,2.122l.2,2.338a.49.49,0,0,0,.531.445.488.488,0,0,0,.409-.3l.908-2.163A2.529,2.529,0,0,1-1555.448,1058.314Z" transform="translate(-45 117)" fill="#3d3d3d"/>
            </g>
            <rect id="Rectángulo_33823" data-name="Rectángulo 33823" width="424.237" height="399.223" transform="translate(-1902.592 1051.286) rotate(-81)" fill="none"/>
          </g>
        </g>
        <g id="Group_82468" data-name="Group 82468" transform="translate(283.272 4052.412) rotate(138)">
          <ellipse id="Ellipse_4783-2" data-name="Ellipse 4783" cx="15" cy="15.5" rx="15" ry="15.5" transform="translate(0.564 0.013)" fill="#3a3a3a"/>
          <g id="Ellipse_4784-2" data-name="Ellipse 4784" transform="translate(-1.436 -0.987)" fill="#fff" stroke="#3a3a3a" stroke-width="1">
            <ellipse cx="14" cy="13" rx="14" ry="13" stroke="none"/>
            <ellipse cx="14" cy="13" rx="13.5" ry="12.5" fill="none"/>
          </g>
        </g>
      </g>
    </g>
    <g id="Group_82466" data-name="Group 82466" transform="translate(2054.392 3384.65)">
      <g id="Group_82465" data-name="Group 82465" clip-path="url(#clip-path-2)">
        <g id="Grupo_82464" data-name="Grupo 82464" transform="translate(-29.645 -26.804)">
          <g id="Grupo_82463" data-name="Grupo 82463" transform="translate(-1837.747 698.078)">
            <g id="cogwheel" transform="translate(91.42 -50)">
              <g id="Grupo_82368" data-name="Grupo 82368" transform="translate(1.901 1.903)">
                <g id="Grupo_82356" data-name="Grupo 82356" transform="translate(0 109.414)">
                  <path id="Trazado_118038" data-name="Trazado 118038" d="M-1742.2,791.319l-9.875,12.762,31.828,18.047,9.861-12.762.949-16.778-8.982-3.334-22.942-13.013Z" transform="translate(1752.075 -776.241)" fill="#95989b"/>
                </g>
                <g id="Grupo_82357" data-name="Grupo 82357" transform="translate(0.001 137.256)">
                  <path id="Trazado_118039" data-name="Trazado 118039" d="M-1752.074,795.79l3.7,14.7,31.813,18.047-3.683-14.7Z" transform="translate(1752.074 -795.79)" fill="#95989b"/>
                </g>
                <g id="Grupo_82358" data-name="Grupo 82358" transform="translate(1.843 85.037)">
                  <path id="Trazado_118040" data-name="Trazado 118040" d="M-1745.2,759.124l-5.578,19.345,31.813,18.047,5.593-19.345Z" transform="translate(1750.781 -759.124)" fill="#dadee3"/>
                </g>
                <g id="Grupo_82359" data-name="Grupo 82359" transform="translate(7.421 50.351)">
                  <path id="Trazado_118041" data-name="Trazado 118041" d="M-1746.864,769.455l31.827,18.047,11.576-5.7,9.009-17.7-2.915-11.3-31.814-18.033,2.93,11.27-9.023,17.713Z" transform="translate(1746.864 -734.769)" fill="#95989b"/>
                </g>
                <g id="Grupo_82360" data-name="Grupo 82360" transform="translate(18.412 161.743)">
                  <path id="Trazado_118042" data-name="Trazado 118042" d="M-1736.636,813.127l-2.511,8.564,31.813,18.034,2.511-8.535v-.029l.029-.07,1.842-6.3-7.5-9.428-11.59,5.886-14.547-8.26-.029.056-.028.084Z" transform="translate(1739.147 -812.984)" fill="#3b3d3d"/>
                </g>
                <g id="Grupo_82361" data-name="Grupo 82361" transform="translate(25.103 33.746)">
                  <path id="Trazado_118043" data-name="Trazado 118043" d="M-1721.716,723.11l-12.733,16.612,31.813,18.034,12.719-16.6Z" transform="translate(1734.449 -723.11)" fill="#dadee3"/>
                </g>
                <g id="Grupo_82362" data-name="Grupo 82362" transform="translate(31.826 18.047)">
                  <path id="Trazado_118044" data-name="Trazado 118044" d="M-1680.9,775.953c-11.678,15.239-17.56,33.766-16.277,47.867a27,27,0,0,0,5.244,14.589,17.48,17.48,0,0,0,15.482,6.541,28.954,28.954,0,0,0,8.383-1.924c8.26-3.125,17.043-9.944,24.7-19.917,12.4-16.193,18.257-36.067,15.942-50.462a27.917,27.917,0,0,0-2.538-8.2,20.1,20.1,0,0,0-2.387-3.78c-6.067-7.629-16.052-8.438-26.583-3.472C-1666.363,760.68-1674.091,767.068-1680.9,775.953Zm-38.026,43.849-8.981-3.333,5.593-19.345,11.577-5.705,9.01-17.7-2.916-11.3,12.72-16.6,8.871,3.528,13.672-11.868,4.24-14.924,15.008-7.517,2.776,11.422,13.068-1.52.39-.516.014-.014,9.387-12.331,11.547,4.451-4.379,14.954,7.5,9.43,11.576-5.9,3.7,14.7-9.86,12.762-.934,16.778,8.954,3.333-5.579,19.345-11.577,5.718-9.024,17.7,2.929,11.284-12.735,16.6-8.855-3.529-13.655,11.869-4.254,14.924-15.008,7.517-2.761-11.408-13.068,1.507-9.806,12.859-11.549-4.449,2.512-8.535v-.028l.029-.07,1.84-6.3-7.5-9.428-11.59,5.886-3.683-14.7,9.861-12.761Z" transform="translate(1729.728 -712.087)" fill="#fff"/>
                </g>
                <g id="Grupo_82363" data-name="Grupo 82363" transform="translate(37.84 10.461)">
                  <path id="Trazado_118045" data-name="Trazado 118045" d="M-1725.505,730.038l31.8,18.047,8.871,3.529,13.672-11.869,4.24-14.924-31.828-18.062-4.24,14.938-13.641,11.869Z" transform="translate(1725.505 -706.76)" fill="#95989b"/>
                </g>
                <g id="Grupo_82364" data-name="Grupo 82364" transform="translate(64.592 2.959)">
                  <path id="Trazado_118046" data-name="Trazado 118046" d="M-1675.369,710.75l-16.345-9.257-15.007,7.5,31.827,18.061,15.007-7.518Z" transform="translate(1706.721 -701.493)" fill="#dadee3"/>
                </g>
                <g id="Grupo_82365" data-name="Grupo 82365" transform="translate(64.382 60.03)">
                  <path id="Trazado_118047" data-name="Trazado 118047" d="M-1706.869,811.314a26.992,26.992,0,0,0,5.244,14.589,17.481,17.481,0,0,0,15.481,6.541,28.959,28.959,0,0,0,8.383-1.924c8.26-3.125,17.043-9.944,24.7-19.917,12.4-16.193,18.257-36.068,15.942-50.462a27.949,27.949,0,0,0-2.538-8.2,20.081,20.081,0,0,0-2.387-3.78c-6.067-7.629-16.052-8.438-26.582-3.472,1.3,14.128-4.574,32.622-16.263,47.867C-1691.709,801.44-1699.421,807.814-1706.869,811.314Z" transform="translate(1706.869 -741.565)" fill="#61646a"/>
                </g>
                <g id="Grupo_82366" data-name="Grupo 82366" transform="translate(95.944)">
                  <path id="Trazado_118048" data-name="Trazado 118048" d="M-1675.4,699.415l-9.3,12.218,15.481,8.787,2.776,11.423,13.068-1.52.39-.516.014-.014,9.387-12.329,11.549,4.449-31.827-18.047Z" transform="translate(1684.707 -699.415)" fill="#95989b"/>
                </g>
                <g id="Grupo_82367" data-name="Grupo 82367" transform="translate(144.23 30.516)">
                  <path id="Trazado_118049" data-name="Trazado 118049" d="M-1648.781,720.842l-2.022,6.932,7.5,9.428,11.576-5.9Z" transform="translate(1650.803 -720.842)" fill="#95989b"/>
                </g>
              </g>
              <g id="Grupo_82382" data-name="Grupo 82382">
                <g id="Grupo_82369" data-name="Grupo 82369" transform="translate(31.83 18.051)">
                  <path id="Trazado_118050" data-name="Trazado 118050" d="M-1699.9,889.317l-11.549-4.449a1.9,1.9,0,0,1-1.139-2.311l2.5-8.5c.015-.06.031-.117.05-.172l1.552-5.317-5.923-7.444-10.207,5.184a1.9,1.9,0,0,1-1.651.034,1.9,1.9,0,0,1-1.057-1.267l-3.68-14.7a1.906,1.906,0,0,1,.34-1.625l9.5-12.295.836-14.789-7.665-2.848a1.9,1.9,0,0,1-1.165-2.311l5.593-19.345a1.9,1.9,0,0,1,.987-1.178l11.009-5.425,8.4-16.494-2.736-10.6a1.908,1.908,0,0,1,.332-1.632l12.721-16.6a1.9,1.9,0,0,1,2.212-.611l7.794,3.1,12.366-10.738,4.084-14.384a1.9,1.9,0,0,1,.977-1.181l15.008-7.517a1.9,1.9,0,0,1,1.65-.026,1.9,1.9,0,0,1,1.048,1.282l2.378,9.788,10.6-1.232,9.3-12.215a1.9,1.9,0,0,1,2.2-.622l11.549,4.449a1.9,1.9,0,0,1,1.139,2.309l-4.1,14,5.92,7.441,10.193-5.194a1.906,1.906,0,0,1,1.651-.037,1.9,1.9,0,0,1,1.057,1.267l3.7,14.7a1.9,1.9,0,0,1-.34,1.626l-9.5,12.3-.824,14.79,7.641,2.848a1.9,1.9,0,0,1,1.164,2.31l-5.58,19.345a1.9,1.9,0,0,1-.986,1.178l-11.01,5.439-8.4,16.493,2.747,10.586a1.9,1.9,0,0,1-.332,1.635l-12.733,16.6a1.9,1.9,0,0,1-2.212.608l-7.779-3.1-12.353,10.738-4.1,14.384a1.9,1.9,0,0,1-.975,1.179l-15.008,7.517a1.9,1.9,0,0,1-1.652.026,1.908,1.908,0,0,1-1.048-1.282l-2.365-9.774-10.595,1.221-9.314,12.215a1.9,1.9,0,0,1-1.514.748A1.863,1.863,0,0,1-1699.9,889.317Zm25.4-16.587,2.2,9.083,12.123-6.071,4.025-14.119a1.9,1.9,0,0,1,.583-.914l13.654-11.869a1.9,1.9,0,0,1,1.951-.33l7.52,2.991,11.294-14.719-2.7-10.385a1.911,1.911,0,0,1,.143-1.342l9.025-17.7a1.908,1.908,0,0,1,.854-.841l10.824-5.347,4.858-16.844-7.3-2.719a1.9,1.9,0,0,1-1.235-1.888l.934-16.778a1.9,1.9,0,0,1,.395-1.057l9.3-12.031-2.888-11.489-9.45,4.815a1.9,1.9,0,0,1-2.352-.51l-7.5-9.43a1.9,1.9,0,0,1-.338-1.718l3.888-13.272-8.583-3.307-8.521,11.194-.057.071-.343.453a1.894,1.894,0,0,1-1.3.743l-13.07,1.52a1.908,1.908,0,0,1-2.068-1.44l-2.21-9.1-12.123,6.073-4.01,14.119a1.9,1.9,0,0,1-.582.916l-13.672,11.869a1.9,1.9,0,0,1-1.948.331l-7.535-2.991-11.28,14.72,2.685,10.4a1.906,1.906,0,0,1-.142,1.337l-9.009,17.7a1.914,1.914,0,0,1-.855.843l-10.824,5.332-4.869,16.843,7.327,2.719a1.9,1.9,0,0,1,1.237,1.89l-.948,16.777a1.9,1.9,0,0,1-.395,1.057l-9.3,12.032,2.878,11.492,9.464-4.807a1.9,1.9,0,0,1,2.35.513l7.5,9.428a1.906,1.906,0,0,1,.339,1.718l-1.843,6.3-.009.031a.259.259,0,0,1-.02.07l-2.015,6.855,8.581,3.307,8.939-11.725a1.914,1.914,0,0,1,1.295-.736l13.07-1.507c.073-.007.147-.011.219-.011a1.9,1.9,0,0,1,1.842,1.455Z" transform="translate(1731.06 -710.753)" fill="#3b3d3d"/>
                </g>
                <g id="Grupo_82370" data-name="Grupo 82370" transform="translate(64.209 60.059)">
                  <path id="Trazado_118051" data-name="Trazado 118051" d="M-1702.492,827.648a28.7,28.7,0,0,1-5.651-15.6c-1.366-15.142,5.019-33.991,16.663-49.2,6.786-8.858,14.626-15.541,22.667-19.323,11.708-5.506,22.5-4.008,28.881,4.011a22.038,22.038,0,0,1,2.6,4.109,29.893,29.893,0,0,1,2.717,8.753c2.472,15.373-3.931,35.747-16.311,51.923-7.591,9.884-16.663,17.179-25.528,20.534a30.876,30.876,0,0,1-8.939,2.047c-.548.036-1.091.053-1.625.053A19.048,19.048,0,0,1-1702.492,827.648Zm35.3-80.68h0c-7.493,3.525-14.848,9.817-21.266,18.2-10.919,14.258-17.157,32.525-15.892,46.539a25,25,0,0,0,4.842,13.577,15.633,15.633,0,0,0,13.865,5.828,27.005,27.005,0,0,0,7.833-1.806c8.225-3.112,16.7-9.969,23.864-19.295,11.777-15.381,17.888-34.608,15.573-49.008a26.049,26.049,0,0,0-2.371-7.668,18.192,18.192,0,0,0-2.162-3.427,15.417,15.417,0,0,0-12.547-5.88,27.916,27.916,0,0,0-11.741,2.944Z" transform="translate(1708.325 -740.25)" fill="#3b3d3d"/>
                </g>
                <g id="Grupo_82371" data-name="Grupo 82371" transform="translate(64.375 63.149)">
                  <path id="Trazado_118052" data-name="Trazado 118052" d="M-1706.316,812.855a1.955,1.955,0,0,0,.823-.181c8.032-3.774,15.874-10.457,22.68-19.322,11.654-15.2,18.033-34.038,16.65-49.177a1.907,1.907,0,0,0-1.9-1.756,1.9,1.9,0,0,0-1.9,1.89v.02a1.377,1.377,0,0,0,.007.174c1.306,14.226-4.777,32.058-15.877,46.537-6.422,8.364-13.76,14.646-21.229,18.17a1.907,1.907,0,0,0-1.151,1.746,1.9,1.9,0,0,0,1.891,1.9Z" transform="translate(1708.208 -742.419)" fill="#3b3d3d"/>
                </g>
                <g id="Grupo_82372" data-name="Grupo 82372" transform="translate(18.42 161.763)">
                  <path id="Trazado_118053" data-name="Trazado 118053" d="M-1706.772,842.187a1.9,1.9,0,0,0,1.658-.964,1.9,1.9,0,0,0-.712-2.592l-30.5-17.291,2.086-7.121a1.813,1.813,0,0,0,.054-.248,1.921,1.921,0,0,0-1-2.1,1.876,1.876,0,0,0-2.528.8l-.01.019-.029.056a2,2,0,0,0-.1.251,1.7,1.7,0,0,0-.068.262l-2.478,8.448a1.9,1.9,0,0,0,.887,2.189l31.815,18.034A1.888,1.888,0,0,0-1706.772,842.187Z" transform="translate(1740.476 -811.662)" fill="#3b3d3d"/>
                </g>
                <g id="Grupo_82373" data-name="Grupo 82373" transform="translate(95.866)">
                  <path id="Trazado_118054" data-name="Trazado 118054" d="M-1631.453,724.381a1.9,1.9,0,0,0,1.656-.964,1.9,1.9,0,0,0-.711-2.592h0l-31.828-18.047a2.02,2.02,0,0,0-.252-.121l-11.536-4.449a1.9,1.9,0,0,0-2.2.622l-9.387,12.329a1.9,1.9,0,0,0,.362,2.665h0a1.9,1.9,0,0,0,2.665-.36h0l8.522-11.194,10.069,3.885,31.707,17.979A1.89,1.89,0,0,0-1631.453,724.381Z" transform="translate(1686.097 -698.078)" fill="#3b3d3d"/>
                </g>
                <g id="Grupo_82374" data-name="Grupo 82374" transform="translate(1.84 2.965)">
                  <path id="Trazado_118055" data-name="Trazado 118055" d="M-1718.4,823.43a1.9,1.9,0,0,0,1.656-.964,1.9,1.9,0,0,0-.712-2.594l-30.509-17.307,4.931-17.09,10.835-5.334a1.889,1.889,0,0,0,.854-.843l9.025-17.713a1.9,1.9,0,0,0,.143-1.342l-2.7-10.371,11.294-14.732,7.532,2.991a1.9,1.9,0,0,0,1.953-.332l13.641-11.869a1.9,1.9,0,0,0,.581-.916l4.01-14.131,13.352-6.675,30.946,17.549a1.9,1.9,0,0,0,2.592-.712,1.9,1.9,0,0,0-.712-2.592l-31.826-18.047a1.9,1.9,0,0,0-1.789-.047l-15.008,7.5a1.909,1.909,0,0,0-.978,1.182l-4.085,14.394-12.341,10.737-7.792-3.1a1.906,1.906,0,0,0-2.213.61l-12.734,16.613a1.906,1.906,0,0,0-.332,1.635l2.747,10.57-8.4,16.506-11.023,5.425a1.9,1.9,0,0,0-.987,1.179l-5.593,19.342a1.9,1.9,0,0,0,.89,2.182l31.813,18.047A1.881,1.881,0,0,0-1718.4,823.43Z" transform="translate(1752.117 -700.16)" fill="#3b3d3d"/>
                </g>
                <g id="Grupo_82375" data-name="Grupo 82375" transform="translate(64.588 10.462)">
                  <path id="Trazado_118056" data-name="Trazado 118056" d="M-1674.33,727.291a1.9,1.9,0,0,0,1.656-.964,1.9,1.9,0,0,0-.712-2.593l-31.831-18.06a1.9,1.9,0,0,0-2.594.712,1.9,1.9,0,0,0,.712,2.592l31.826,18.062A1.884,1.884,0,0,0-1674.33,727.291Z" transform="translate(1708.059 -705.425)" fill="#3b3d3d"/>
                </g>
                <g id="Grupo_82376" data-name="Grupo 82376" transform="translate(37.839 33.739)">
                  <path id="Trazado_118057" data-name="Trazado 118057" d="M-1693.142,743.62a1.9,1.9,0,0,0,1.656-.963,1.9,1.9,0,0,0-.712-2.592l-31.8-18.047a1.9,1.9,0,0,0-2.592.709v0a1.9,1.9,0,0,0,.712,2.594l31.8,18.047A1.889,1.889,0,0,0-1693.142,743.62Z" transform="translate(1726.841 -721.769)" fill="#3b3d3d"/>
                </g>
                <g id="Grupo_82377" data-name="Grupo 82377" transform="translate(25.108 50.349)">
                  <path id="Trazado_118058" data-name="Trazado 118058" d="M-1702.07,755.271a1.9,1.9,0,0,0,1.658-.964,1.9,1.9,0,0,0-.712-2.592l-31.813-18.034a1.9,1.9,0,0,0-2.594.712,1.9,1.9,0,0,0,.712,2.593L-1703,755.02A1.89,1.89,0,0,0-1702.07,755.271Z" transform="translate(1735.78 -733.432)" fill="#3b3d3d"/>
                </g>
                <g id="Grupo_82378" data-name="Grupo 82378" transform="translate(7.423 85.039)">
                  <path id="Trazado_118059" data-name="Trazado 118059" d="M-1714.472,779.642a1.9,1.9,0,0,0,1.656-.964,1.9,1.9,0,0,0-.712-2.592l-31.828-18.047a1.9,1.9,0,0,0-2.592.712,1.9,1.9,0,0,0,.712,2.593h0l31.828,18.047A1.894,1.894,0,0,0-1714.472,779.642Z" transform="translate(1748.197 -757.79)" fill="#3b3d3d"/>
                </g>
                <g id="Grupo_82379" data-name="Grupo 82379" transform="translate(0.003 137.255)">
                  <path id="Trazado_118060" data-name="Trazado 118060" d="M-1719.683,816.307a1.9,1.9,0,0,0,1.656-.964,1.9,1.9,0,0,0-.711-2.592h0l-31.828-18.047a1.9,1.9,0,0,0-2.591.711h0a1.9,1.9,0,0,0,.711,2.592h0l31.828,18.047A1.878,1.878,0,0,0-1719.683,816.307Z" transform="translate(1753.407 -794.453)" fill="#3b3d3d"/>
                </g>
                <g id="Grupo_82380" data-name="Grupo 82380" transform="translate(0 109.424)">
                  <path id="Trazado_118061" data-name="Trazado 118061" d="M-1716,839.3a1.9,1.9,0,0,0,1.656-.964,1.9,1.9,0,0,0-.712-2.593l-31.106-17.646-3.275-13.014,9.31-12.03a1.908,1.908,0,0,0,.395-1.058l.837-15.078a1.9,1.9,0,0,0-1.793-2h0a1.912,1.912,0,0,0-2,1.794l-.8,14.487-9.514,12.295a1.9,1.9,0,0,0-.34,1.626l3.7,14.7a1.9,1.9,0,0,0,.906,1.191l31.813,18.047A1.9,1.9,0,0,0-1716,839.3Z" transform="translate(1753.409 -774.911)" fill="#3b3d3d"/>
                </g>
                <g id="Grupo_82381" data-name="Grupo 82381" transform="translate(146.25 30.519)">
                  <path id="Trazado_118062" data-name="Trazado 118062" d="M-1631.762,733.771a1.9,1.9,0,0,0,1.623-.907,1.9,1.9,0,0,0-.625-2.615h0l-17.059-10.461a1.9,1.9,0,0,0-2.615.628,1.9,1.9,0,0,0,.628,2.616l17.057,10.459A1.891,1.891,0,0,0-1631.762,733.771Z" transform="translate(1650.719 -719.508)" fill="#3b3d3d"/>
                </g>
              </g>
            </g>
            <g id="Grupo_82383" data-name="Grupo 82383" transform="translate(37.777 339.345)">
              <path id="Trazado_118063" data-name="Trazado 118063" d="M-1744.6,1025.041c-5.019-13.143-22.719-19.4-32.144-7.828a19.565,19.565,0,0,0-4.024,11.4q-.657.091-1.316.166a8.062,8.062,0,0,0-1.306.031c-2.2.1-4.4.291-6.6.525-5.67.607-12.775,2.475-12.907,10.313-.172,10.245,11.247,16.693,18.775,19.269,9.086,3.111,21.365,2.7,29.832-2.337C-1743.921,1050.42-1740.11,1036.807-1744.6,1025.041Z" transform="translate(1802.897 -1011.133)" fill="#d6dade"/>
            </g>
            <g id="Grupo_82385" data-name="Grupo 82385" transform="translate(14.44 188.545)">
              <path id="Trazado_118065" data-name="Trazado 118065" d="M-1757.849,874.137c-9-5.338-19.078.026-22.359,9.1a16.145,16.145,0,0,0-.867,4.72c-.17.138-.164.153,0,.055v.2a3.886,3.886,0,0,1-1.209.3,18.879,18.879,0,0,0-2.187.065c-2.841-.158-5.668-.55-8.48-.976-6.431-.97-12.96-2.674-19.437-3.195-4.415-.354-7.708,1.244-11.8,2.308-.417.108-.238.722.177.638,3.95-.788,6.574,3.953,9.166,6.122A102.62,102.62,0,0,0-1804.439,901a139.388,139.388,0,0,0,21.983,11.755c10.415,4.274,21.175,1.45,28.01-7.4C-1747.094,895.844-1746.3,880.988-1757.849,874.137Z" transform="translate(1824.425 -872.016)" fill="#d6dade"/>
            </g>
            <g id="Grupo_82386" data-name="Grupo 82386" transform="translate(159.857 283.479)">
              <path id="Trazado_118066" data-name="Trazado 118066" d="M-1669.382,1050.817c6.983,4.291,14.061,8.98,21.718,11.977,15.634,6.117,31.544-.61,46.386-6a344.064,344.064,0,0,0,35.165-15.146c3.534-4.424,7.735-8.39,13.141-10.189a17.184,17.184,0,0,1,7.444-.759c11.183-6.36,22.054-13.192,32.475-20.338,7.767-5.324,15.22-11.257,22.594-17.106,3.385-2.686,6.637-5.541,10.036-8.207,4.228-3.313,8.787-6.155,11.548-10.888,4.566-7.832-2.939-15.915-11.057-14.375-7.427,1.409-14.532,7.547-21.138,11.1-6.536,3.518-13.037,7.1-19.6,10.564-13.667,7.208-26.958,15.1-40.414,22.686-13.182,7.434-53.007,29.785-59.661,33.669-5.626,3.283-11.178,8.005-17.349,10.16-7.537,2.631-16.747-2.749-23.81-5.151a181.383,181.383,0,0,0-27.4-7.555c-.65-.114-1.357.72-.725,1.248A170.8,170.8,0,0,0-1669.382,1050.817Z" transform="translate(1690.275 -959.596)" fill="#d6dade"/>
            </g>
            <g id="Grupo_82387" data-name="Grupo 82387" transform="translate(78.626 203.407)">
              <path id="Trazado_118067" data-name="Trazado 118067" d="M-1470.879,946.7v20.612l-164.946,95.226c-3.271,1.892-9,1.66-12.777-.521l-113.483-65.523c-3.783-2.181-4.188-5.49-.917-7.382l176.893-102.125c3.281-1.872,8.974-1.626,12.748.55Zm-75.482,10.075,18.875-10.9-18.874-10.9-18.875,10.9Zm-36.515-21.076,18.875-10.9-18.875-10.9-18.875,10.9Zm-1.708,43.142,18.875-10.895-18.875-10.9-18.875,10.9Zm-36.515-21.076,18.875-10.9-18.875-10.9-18.875,10.9Zm-1.708,43.142,18.875-10.9-18.875-10.9-18.875,10.9Zm-36.515-21.076,18.875-10.9-18.875-10.9-18.875,10.9Zm-1.708,43.142,18.875-10.9-18.875-10.9-18.875,10.9Zm-36.516-21.086,18.875-10.9-18.875-10.9-18.875,10.9Z" transform="translate(1765.212 -885.727)" fill="#fff"/>
            </g>
            <g id="Grupo_82388" data-name="Grupo 82388" transform="translate(278.601 252.661)">
              <path id="Trazado_118068" data-name="Trazado 118068" d="M-1542.979,942.06l-18.875,10.9-18.875-10.9,18.875-10.9Z" transform="translate(1580.73 -931.165)" fill="#3d3d3d"/>
            </g>
            <g id="Grupo_82389" data-name="Grupo 82389" transform="translate(242.087 231.578)">
              <path id="Trazado_118069" data-name="Trazado 118069" d="M-1576.664,922.61l-18.875,10.9-18.875-10.9,18.875-10.9Z" transform="translate(1614.415 -911.715)" fill="#3d3d3d"/>
            </g>
            <g id="Grupo_82390" data-name="Grupo 82390" transform="translate(240.378 274.731)">
              <path id="Trazado_118070" data-name="Trazado 118070" d="M-1578.241,962.42l-18.875,10.9-18.875-10.9,18.875-10.9Z" transform="translate(1615.992 -951.525)" fill="#3d3d3d"/>
            </g>
            <g id="Grupo_82391" data-name="Grupo 82391" transform="translate(63.184 64.136)">
              <path id="Trazado_118071" data-name="Trazado 118071" d="M-1577.424,886.6a11.138,11.138,0,0,1-5.25,9.882L-1759.6,998.626c-3.289,1.75-6.167.473-6.543-3.069l-13.307-125.469a10.857,10.857,0,0,1,2.693-7.7,9.75,9.75,0,0,1,2.547-2.181L-1597.342,758.1c3.271-1.892,6.234-.542,6.612,3.035Zm-24.954-6.591-9.105-85.885-143,82.555,9.105,85.884Z" transform="translate(1779.458 -757.245)" fill="#fff"/>
            </g>
            <g id="Grupo_82392" data-name="Grupo 82392" transform="translate(203.867 253.646)">
              <path id="Trazado_118072" data-name="Trazado 118072" d="M-1611.928,942.968l-18.871,10.9-18.875-10.9,18.875-10.894Z" transform="translate(1649.674 -932.074)" fill="#3d3d3d"/>
            </g>
            <g id="Grupo_82393" data-name="Grupo 82393" transform="translate(91.762 118.547)">
              <path id="Trazado_118073" data-name="Trazado 118073" d="M-1611.84,807.443l7.247,68.35-143,82.555-5.5-51.868c3.36-7.758,7.594-14.929,15.816-14.929,8.563,0,17.254,17.167,26.3,17.167,11.329,0,12.584-19.493,20.477-19.493,4.266,0,6.909,1.785,10.344,1.785,8.917,0,5.829-28.342,20-28.342,4.738,0,9.37,5.114,13.954,5.114,11.956,0,8.021-24.328,10.634-32.135,3.812-11.358,19.107-15.935,20.1-18.615,1.467-3.995,2.094-7.016,3.619-9.592Z" transform="translate(1753.094 -807.441)" fill="#fef536"/>
            </g>
            <g id="Grupo_82394" data-name="Grupo 82394" transform="translate(202.155 296.79)">
              <path id="Trazado_118074" data-name="Trazado 118074" d="M-1613.5,982.78l-18.875,10.9-18.875-10.9,18.875-10.9Z" transform="translate(1651.253 -971.875)" fill="#3d3d3d"/>
            </g>
            <g id="Grupo_82395" data-name="Grupo 82395" transform="translate(88.155 101.015)">
              <path id="Trazado_118075" data-name="Trazado 118075" d="M-1613.419,791.267l1.862,17.534h-.01c-1.525,2.577-2.152,5.6-3.618,9.592-.994,2.683-16.289,7.257-20.1,18.615-2.615,7.8,1.323,32.135-10.634,32.135-4.584,0-9.214-5.114-13.954-5.114-14.175,0-11.088,28.342-20,28.342-3.435,0-6.08-1.785-10.344-1.785-7.894,0-9.148,19.493-20.477,19.493-9.042,0-17.736-17.167-26.3-17.167-8.222,0-12.458,7.169-15.817,14.929l-3.609-34.016Z" transform="translate(1756.421 -791.267)" fill="#d6dade"/>
            </g>
            <g id="Grupo_82396" data-name="Grupo 82396" transform="translate(165.641 275.715)">
              <path id="Trazado_118076" data-name="Trazado 118076" d="M-1647.188,963.328l-18.875,10.9-18.875-10.9,18.875-10.9Z" transform="translate(1684.939 -952.433)" fill="#3d3d3d"/>
            </g>
            <g id="Grupo_82397" data-name="Grupo 82397" transform="translate(163.931 318.86)">
              <path id="Trazado_118077" data-name="Trazado 118077" d="M-1648.765,1003.14l-18.875,10.9-18.875-10.9,18.875-10.9Z" transform="translate(1686.516 -992.235)" fill="#3d3d3d"/>
            </g>
            <g id="Grupo_82398" data-name="Grupo 82398" transform="translate(127.417 297.785)">
              <path id="Trazado_118078" data-name="Trazado 118078" d="M-1682.45,983.688l-18.875,10.9-18.875-10.9,18.875-10.9Z" transform="translate(1720.201 -972.793)" fill="#3d3d3d"/>
            </g>
            <g id="Grupo_82400" data-name="Grupo 82400" transform="translate(101.739 405.016)">
              <path id="Trazado_118080" data-name="Trazado 118080" d="M-1718.212,1071.716v42.151l-25.678-14.832Z" transform="translate(1743.89 -1071.716)" fill="#fff"/>
            </g>
            <g id="Grupo_82401" data-name="Grupo 82401" transform="translate(41.646 130.825)">
              <path id="Trazado_118081" data-name="Trazado 118081" d="M-1777.777,864.922l2.731,25.785-24.281,14.021v-85.96l24.241,38.455A10.855,10.855,0,0,0-1777.777,864.922Z" transform="translate(1799.327 -818.768)" fill="#3d3d3d"/>
            </g>
            <g id="Grupo_82402" data-name="Grupo 82402" transform="translate(37.774 338.548)">
              <path id="Trazado_118082" data-name="Trazado 118082" d="M-1797.171,1019.218c-3.816-2.441-5.728-5.626-5.728-8.82v17.655c0,3.185,1.912,6.379,5.728,8.82,4.958,3.167,11.924,4.261,18.283,3.313q.138-8.844.179-17.687C-1785.123,1023.5-1792.168,1022.416-1797.171,1019.218Z" transform="translate(1802.899 -1010.398)" fill="#fff"/>
            </g>
            <g id="Grupo_82403" data-name="Grupo 82403" transform="translate(61.784 338.548)">
              <path id="Trazado_118083" data-name="Trazado 118083" d="M-1771.38,1019.218a24.025,24.025,0,0,1-9.19,3.284q-.052,8.845-.179,17.687a24.107,24.107,0,0,0,9.368-3.312c3.815-2.441,5.728-5.637,5.728-8.821V1010.4C-1765.653,1013.593-1767.566,1016.779-1771.38,1019.218Z" transform="translate(1780.749 -1010.398)" fill="#d6dade"/>
            </g>
            <g id="Grupo_82404" data-name="Grupo 82404" transform="translate(61.961 320.876)">
              <path id="Trazado_118084" data-name="Trazado 118084" d="M-1771.394,1002.928a23.965,23.965,0,0,1-9.084,3.268l-.109,17.675a24.029,24.029,0,0,0,9.19-3.284c3.815-2.441,5.728-5.626,5.728-8.82V994.1C-1765.663,997.3-1767.578,1000.5-1771.394,1002.928Z" transform="translate(1780.586 -994.095)" fill="#d6dade"/>
            </g>
            <g id="Grupo_82405" data-name="Grupo 82405" transform="translate(37.774 320.879)">
              <path id="Trazado_118085" data-name="Trazado 118085" d="M-1797.171,1002.928c-3.816-2.432-5.728-5.626-5.728-8.83v17.669c0,3.194,1.912,6.378,5.728,8.82,5,3.2,12.048,4.282,18.462,3.284l.108-17.675C-1785.046,1007.221-1792.134,1006.141-1797.171,1002.928Z" transform="translate(1802.899 -994.098)" fill="#fff"/>
            </g>
            <g id="Grupo_82406" data-name="Grupo 82406" transform="translate(62.072 303.23)">
              <path id="Trazado_118086" data-name="Trazado 118086" d="M-1771.4,986.636a23.866,23.866,0,0,1-8.85,3.226q-.181,8.852-.233,17.7a23.964,23.964,0,0,0,9.084-3.268c3.815-2.431,5.728-5.626,5.728-8.83V977.816C-1765.675,981-1767.587,984.2-1771.4,986.636Z" transform="translate(1780.484 -977.816)" fill="#d6dade"/>
            </g>
            <g id="Grupo_82407" data-name="Grupo 82407" transform="translate(37.774 303.23)">
              <path id="Trazado_118087" data-name="Trazado 118087" d="M-1797.171,986.636c-3.816-2.441-5.728-5.637-5.728-8.82v17.655c0,3.2,1.912,6.4,5.728,8.83,5.032,3.213,12.126,4.294,18.569,3.268q.068-8.852.233-17.7C-1784.871,990.948-1792.079,989.882-1797.171,986.636Z" transform="translate(1802.899 -977.816)" fill="#fff"/>
            </g>
            <g id="Grupo_82408" data-name="Grupo 82408" transform="translate(37.774 285.821)">
              <path id="Trazado_118088" data-name="Trazado 118088" d="M-1797.171,970.576c-3.816-2.431-5.728-5.626-5.728-8.82h0v17.409c0,3.185,1.912,6.379,5.728,8.82,5.095,3.246,12.3,4.312,18.8,3.226.118-5.829.286-11.658.542-17.487C-1784.469,974.967-1791.938,973.918-1797.171,970.576Z" transform="translate(1802.899 -961.756)" fill="#fff"/>
            </g>
            <g id="Grupo_82409" data-name="Grupo 82409" transform="translate(62.301 285.821)">
              <path id="Trazado_118089" data-name="Trazado 118089" d="M-1765.693,961.756c0,3.195-1.913,6.388-5.728,8.82a23.57,23.57,0,0,1-8.31,3.144c-.254,5.828-.423,11.658-.542,17.487a23.861,23.861,0,0,0,8.85-3.226c3.815-2.441,5.728-5.637,5.728-8.82Z" transform="translate(1780.272 -961.756)" fill="#d6dade"/>
            </g>
            <g id="Grupo_82410" data-name="Grupo 82410" transform="translate(1.929 130.823)">
              <path id="Trazado_118090" data-name="Trazado 118090" d="M-1796.248,818.766v85.96l-39.719-22.938Z" transform="translate(1835.967 -818.766)" fill="#fff"/>
            </g>
            <g id="Grupo_82411" data-name="Grupo 82411" transform="translate(37.774 273.347)">
              <path id="Trazado_118091" data-name="Trazado 118091" d="M-1769.52,953.9c3.815,2.441,5.728,5.626,5.728,8.82s-1.912,6.388-5.728,8.82c-7.64,4.878-20.021,4.878-27.651,0-3.816-2.431-5.728-5.626-5.728-8.82s1.912-6.378,5.728-8.82C-1789.541,949.03-1777.16,949.03-1769.52,953.9Z" transform="translate(1802.899 -950.248)" fill="#fff"/>
            </g>
            <g id="Grupo_82414" data-name="Grupo 82414" transform="translate(0 128.892)">
              <path id="Trazado_118094" data-name="Trazado 118094" d="M-1796.1,906.808a1.932,1.932,0,0,0,.965-.259l24.281-14.021a1.931,1.931,0,0,0,.706-2.637,1.928,1.928,0,0,0-2.635-.706h0l-23.314,13.464-37.017-21.377,37.017-58.737,22.608,35.865a1.929,1.929,0,0,0,2.661.6,1.93,1.93,0,0,0,.6-2.662l-24.241-38.455a1.929,1.929,0,0,0-1.631-.9h0a1.93,1.93,0,0,0-1.632.9l-39.719,63.024a1.933,1.933,0,0,0-.241,1.493,1.929,1.929,0,0,0,.909,1.209l39.719,22.938A1.917,1.917,0,0,0-1796.1,906.808Z" transform="translate(1837.747 -816.985)" fill="#3d3d3d"/>
            </g>
            <g id="Grupo_82415" data-name="Grupo 82415" transform="translate(39.719 128.896)">
              <path id="Trazado_118095" data-name="Trazado 118095" d="M-1799.175,906.808a1.931,1.931,0,0,0,1.931-1.93v-85.96a1.931,1.931,0,0,0-1.931-1.931h0a1.93,1.93,0,0,0-1.93,1.93h0v85.96a1.93,1.93,0,0,0,1.93,1.93Z" transform="translate(1801.105 -816.988)" fill="#3d3d3d"/>
            </g>
            <g id="Grupo_82416" data-name="Grupo 82416" transform="translate(257.102 349.007)">
              <path id="Trazado_118096" data-name="Trazado 118096" d="M-1579.283,1035.081a1.931,1.931,0,0,0,1.754-1.123,1.928,1.928,0,0,0-.944-2.559h0a114.749,114.749,0,0,1-11.611-6.579c-2.524-1.559-5.133-3.17-7.619-4.534a1.932,1.932,0,0,0-2.62.764,1.93,1.93,0,0,0,.764,2.62h0c2.4,1.316,4.851,2.83,7.448,4.435a117.242,117.242,0,0,0,12.023,6.8A1.918,1.918,0,0,0-1579.283,1035.081Z" transform="translate(1600.564 -1020.047)" fill="#3d3d3d"/>
            </g>
            <g id="Grupo_82417" data-name="Grupo 82417" transform="translate(35.844 271.384)">
              <path id="Trazado_118097" data-name="Trazado 118097" d="M-1798.059,973.322c-4.269-2.721-6.621-6.43-6.621-10.447s2.351-7.716,6.619-10.447c8.33-5.32,21.389-5.32,29.731,0,4.268,2.731,6.612,6.44,6.612,10.446s-2.352,7.727-6.62,10.447a28,28,0,0,1-14.868,3.989A27.959,27.959,0,0,1-1798.059,973.322Zm2.078-17.642c-3.12,2-4.839,4.553-4.839,7.2s1.718,5.2,4.838,7.193c7.046,4.5,18.519,4.5,25.575,0,3.117-1.987,4.834-4.541,4.834-7.192s-1.718-5.2-4.836-7.193a24.187,24.187,0,0,0-12.791-3.376,24.148,24.148,0,0,0-12.783,3.372Z" transform="translate(1804.68 -948.437)" fill="#3d3d3d"/>
            </g>
            <g id="Grupo_82418" data-name="Grupo 82418" transform="translate(35.845 301.299)">
              <path id="Trazado_118098" data-name="Trazado 118098" d="M-1783.2,992.389a28.032,28.032,0,0,0,14.867-3.977c4.271-2.732,6.621-6.441,6.621-10.447a1.931,1.931,0,0,0-1.931-1.93,1.93,1.93,0,0,0-1.929,1.93h0c0,2.643-1.718,5.2-4.838,7.194-7.053,4.49-18.526,4.489-25.574,0-3.116-1.995-4.836-4.553-4.836-7.192a1.93,1.93,0,0,0-1.929-1.93h0a1.93,1.93,0,0,0-1.929,1.93h0c0,4.011,2.351,7.715,6.618,10.445A28.005,28.005,0,0,0-1783.2,992.389Z" transform="translate(1804.679 -976.035)" fill="#3d3d3d"/>
            </g>
            <g id="Grupo_82419" data-name="Grupo 82419" transform="translate(35.844 318.949)">
              <path id="Trazado_118099" data-name="Trazado 118099" d="M-1783.2,1008.694a28,28,0,0,0,14.868-3.989c4.269-2.721,6.62-6.435,6.62-10.457a1.931,1.931,0,0,0-1.931-1.93,1.93,1.93,0,0,0-1.929,1.93h0c0,2.657-1.717,5.215-4.834,7.2-7.056,4.5-18.53,4.5-25.575,0-3.12-1.988-4.838-4.546-4.838-7.2a1.93,1.93,0,0,0-1.93-1.929h0a1.931,1.931,0,0,0-1.929,1.929c0,4.023,2.351,7.736,6.621,10.457A27.962,27.962,0,0,0-1783.2,1008.694Z" transform="translate(1804.68 -992.317)" fill="#3d3d3d"/>
            </g>
            <g id="Grupo_82420" data-name="Grupo 82420" transform="translate(35.843 336.618)">
              <path id="Trazado_118100" data-name="Trazado 118100" d="M-1783.2,1024.984a28,28,0,0,0,14.867-3.989c4.27-2.732,6.62-6.441,6.62-10.447a1.931,1.931,0,0,0-1.931-1.931h0a1.93,1.93,0,0,0-1.929,1.929h0c0,2.643-1.718,5.2-4.838,7.194-7.053,4.5-18.526,4.5-25.572,0-3.119-2-4.838-4.553-4.838-7.193a1.93,1.93,0,0,0-1.928-1.931h0a1.931,1.931,0,0,0-1.93,1.931c0,4.011,2.351,7.715,6.618,10.445A27.976,27.976,0,0,0-1783.2,1024.984Z" transform="translate(1804.681 -1008.617)" fill="#3d3d3d"/>
            </g>
            <g id="Grupo_82421" data-name="Grupo 82421" transform="translate(35.843 283.891)">
              <path id="Trazado_118101" data-name="Trazado 118101" d="M-1783.2,1046.723a27.994,27.994,0,0,0,14.866-3.989c4.27-2.732,6.62-6.441,6.62-10.448V961.9a1.931,1.931,0,0,0-1.931-1.93,1.93,1.93,0,0,0-1.929,1.93h0v70.386c0,2.643-1.718,5.2-4.838,7.194-7.053,4.5-18.526,4.5-25.572,0-3.119-2-4.838-4.553-4.838-7.193V961.9a1.93,1.93,0,0,0-1.93-1.93h0a1.93,1.93,0,0,0-1.93,1.93h0v70.386c0,4.011,2.351,7.715,6.618,10.445A27.975,27.975,0,0,0-1783.2,1046.723Z" transform="translate(1804.681 -959.975)" fill="#3d3d3d"/>
            </g>
            <g id="Grupo_82422" data-name="Grupo 82422" transform="translate(255.801 201.485)">
              <path id="Trazado_118102" data-name="Trazado 118102" d="M-1484.606,948.776a1.929,1.929,0,0,0,1.674-.965,1.931,1.931,0,0,0-.707-2.636l-102.482-59.164c-4.367-2.513-10.809-2.757-14.668-.555a1.928,1.928,0,0,0-.721,2.631v0a1.931,1.931,0,0,0,2.633.72c2.688-1.535,7.647-1.283,10.828.542l102.483,59.167A1.911,1.911,0,0,0-1484.606,948.776Z" transform="translate(1601.764 -883.953)" fill="#3d3d3d"/>
            </g>
            <g id="Grupo_82423" data-name="Grupo 82423" transform="translate(76.692 283.058)">
              <path id="Trazado_118103" data-name="Trazado 118103" d="M-1641.247,1059.572a13.257,13.257,0,0,0,6.537-1.536l164.942-95.227a1.931,1.931,0,0,0,.707-2.636,1.93,1.93,0,0,0-2.636-.708l-164.946,95.225c-2.693,1.557-7.659,1.318-10.848-.521l-113.482-65.522c-1.595-.918-2.161-1.894-2.163-2.5,0-.712.781-1.271,1.247-1.539l2.208-1.273a1.929,1.929,0,0,0,.708-2.635,1.929,1.929,0,0,0-2.635-.708h0l-2.21,1.274a5.66,5.66,0,0,0-3.177,4.883c0,2.214,1.494,4.344,4.093,5.843l113.482,65.522A16.712,16.712,0,0,0-1641.247,1059.572Z" transform="translate(1766.996 -959.207)" fill="#3d3d3d"/>
            </g>
            <g id="Grupo_82424" data-name="Grupo 82424" transform="translate(219.584 283.976)">
              <path id="Trazado_118104" data-name="Trazado 118104" d="M-1633.243,1021.632a1.928,1.928,0,0,0,.964-.259l99.973-57.716a1.931,1.931,0,0,0,.707-2.636,1.931,1.931,0,0,0-2.636-.708l-99.974,57.716a1.931,1.931,0,0,0-.707,2.637h0A1.927,1.927,0,0,0-1633.243,1021.632Z" transform="translate(1635.175 -960.054)" fill="#3d3d3d"/>
            </g>
            <g id="Grupo_82425" data-name="Grupo 82425" transform="translate(125.488 295.86)">
              <path id="Trazado_118105" data-name="Trazado 118105" d="M-1702.141,996.408l-18.875-10.9a1.93,1.93,0,0,1-.965-1.672,1.929,1.929,0,0,1,.965-1.672l18.875-10.9a1.939,1.939,0,0,1,1.929,0l18.875,10.9a1.929,1.929,0,0,1,.965,1.672,1.93,1.93,0,0,1-.965,1.672l-18.875,10.9a1.932,1.932,0,0,1-.965.259A1.935,1.935,0,0,1-1702.141,996.408Zm.965-21.233-15.014,8.672,15.014,8.665,15.014-8.665Z" transform="translate(1721.981 -971.017)" fill="#3d3d3d"/>
            </g>
            <g id="Grupo_82426" data-name="Grupo 82426" transform="translate(163.711 273.786)">
              <path id="Trazado_118106" data-name="Trazado 118106" d="M-1666.88,976.054l-18.875-10.9a1.931,1.931,0,0,1-.964-1.672,1.93,1.93,0,0,1,.965-1.672l18.875-10.894a1.932,1.932,0,0,1,1.931,0l18.875,10.894a1.93,1.93,0,0,1,.965,1.672,1.93,1.93,0,0,1-.965,1.672l-18.875,10.9a1.919,1.919,0,0,1-.965.259A1.93,1.93,0,0,1-1666.88,976.054Zm.966-21.246-15.016,8.672,15.016,8.672,15.015-8.672Z" transform="translate(1686.719 -950.654)" fill="#3d3d3d"/>
            </g>
            <g id="Grupo_82427" data-name="Grupo 82427" transform="translate(201.934 251.717)">
              <path id="Trazado_118107" data-name="Trazado 118107" d="M-1631.618,955.694l-18.875-10.9a1.931,1.931,0,0,1-.964-1.672,1.929,1.929,0,0,1,.965-1.67l18.875-10.9a1.94,1.94,0,0,1,1.93,0l18.875,10.9a1.929,1.929,0,0,1,.965,1.67,1.927,1.927,0,0,1-.965,1.672l-18.875,10.9a1.919,1.919,0,0,1-.965.259A1.926,1.926,0,0,1-1631.618,955.694Zm.966-21.246-15.016,8.672,15.016,8.672,15.015-8.672Z" transform="translate(1651.457 -930.294)" fill="#3d3d3d"/>
            </g>
            <g id="Grupo_82428" data-name="Grupo 82428" transform="translate(240.162 229.649)">
              <path id="Trazado_118108" data-name="Trazado 118108" d="M-1596.352,935.335l-18.875-10.9a1.926,1.926,0,0,1-.964-1.671,1.93,1.93,0,0,1,.965-1.672l18.875-10.894a1.935,1.935,0,0,1,1.929,0l18.875,10.894a1.931,1.931,0,0,1,.965,1.672,1.927,1.927,0,0,1-.965,1.671l-18.875,10.9a1.919,1.919,0,0,1-.965.259A1.925,1.925,0,0,1-1596.352,935.335Zm.966-21.246-15.016,8.672,15.016,8.672,15.015-8.672Z" transform="translate(1616.191 -909.935)" fill="#3d3d3d"/>
            </g>
            <g id="Grupo_82429" data-name="Grupo 82429" transform="translate(162.003 316.931)">
              <path id="Trazado_118109" data-name="Trazado 118109" d="M-1668.455,1015.857l-18.875-10.9a1.929,1.929,0,0,1-.965-1.672,1.932,1.932,0,0,1,.964-1.671l18.875-10.9a1.931,1.931,0,0,1,1.931,0l18.875,10.9a1.93,1.93,0,0,1,.965,1.671,1.93,1.93,0,0,1-.965,1.672l-18.875,10.9a1.931,1.931,0,0,1-.965.259A1.923,1.923,0,0,1-1668.455,1015.857Zm.965-21.246-15.016,8.672,15.016,8.672,15.015-8.672Z" transform="translate(1688.295 -990.456)" fill="#3d3d3d"/>
            </g>
            <g id="Grupo_82430" data-name="Grupo 82430" transform="translate(200.226 294.861)">
              <path id="Trazado_118110" data-name="Trazado 118110" d="M-1633.193,995.5l-18.875-10.9a1.93,1.93,0,0,1-.965-1.672,1.929,1.929,0,0,1,.964-1.671l18.875-10.9a1.932,1.932,0,0,1,1.931,0l18.875,10.9a1.929,1.929,0,0,1,.965,1.671,1.93,1.93,0,0,1-.965,1.672l-18.875,10.9a1.933,1.933,0,0,1-.965.259A1.924,1.924,0,0,1-1633.193,995.5Zm.965-21.246-15.016,8.672,15.016,8.672,15.015-8.672Z" transform="translate(1653.033 -970.096)" fill="#3d3d3d"/>
            </g>
            <g id="Grupo_82431" data-name="Grupo 82431" transform="translate(238.449 272.803)">
              <path id="Trazado_118111" data-name="Trazado 118111" d="M-1597.931,975.137l-18.875-10.9a1.93,1.93,0,0,1-.965-1.671,1.93,1.93,0,0,1,.965-1.672l18.875-10.9a1.934,1.934,0,0,1,1.93,0l18.875,10.9a1.93,1.93,0,0,1,.965,1.672,1.93,1.93,0,0,1-.965,1.671l-18.875,10.9a1.931,1.931,0,0,1-.965.259A1.923,1.923,0,0,1-1597.931,975.137Zm.965-21.233-15.014,8.672,15.014,8.665,15.014-8.665Z" transform="translate(1617.771 -949.746)" fill="#3d3d3d"/>
            </g>
            <g id="Grupo_82432" data-name="Grupo 82432" transform="translate(276.673 250.732)">
              <path id="Trazado_118112" data-name="Trazado 118112" d="M-1562.669,954.777l-18.875-10.9a1.93,1.93,0,0,1-.965-1.672,1.933,1.933,0,0,1,.965-1.673l18.875-10.9a1.935,1.935,0,0,1,1.929,0l18.875,10.9a1.933,1.933,0,0,1,.965,1.673,1.93,1.93,0,0,1-.965,1.672l-18.875,10.9a1.932,1.932,0,0,1-.965.259A1.935,1.935,0,0,1-1562.669,954.777Zm.965-21.233-15.014,8.672,15.014,8.665,15.014-8.665Z" transform="translate(1582.509 -929.385)" fill="#3d3d3d"/>
            </g>
            <g id="Grupo_82433" data-name="Grupo 82433" transform="translate(61.256 62.222)">
              <path id="Trazado_118113" data-name="Trazado 118113" d="M-1764.88,1000.847a6.033,6.033,0,0,1-3.029-4.938l-13.307-125.469a12.77,12.77,0,0,1,3.144-9.151,11.59,11.59,0,0,1,3.056-2.6l176.863-102.111a6.632,6.632,0,0,1,6.358-.521,6.133,6.133,0,0,1,3.137,5.019l7.316,68.929h0l5.992,56.539a13.068,13.068,0,0,1-6.2,11.756c-176.928,102.148-176.937,102.153-176.98,102.176a7.911,7.911,0,0,1-3.7,1.01A5.565,5.565,0,0,1-1764.88,1000.847Zm179.693-170.433-7.315-68.93a2.485,2.485,0,0,0-1.05-1.986,2.937,2.937,0,0,0-2.676.425L-1773.1,862.033a7.763,7.763,0,0,0-2.031,1.752,8.947,8.947,0,0,0-2.247,6.251l13.307,125.467a2.461,2.461,0,0,0,1,1.936,2.979,2.979,0,0,0,2.662-.336l176.92-102.143a9.2,9.2,0,0,0,4.295-8.006l-5.992-56.539Z" transform="translate(1781.237 -755.48)" fill="#3d3d3d"/>
            </g>
            <g id="Grupo_82434" data-name="Grupo 82434" transform="translate(86.225 99.083)">
              <path id="Trazado_118114" data-name="Trazado 118114" d="M-1748.041,961.576a1.93,1.93,0,0,1-1.045-1.518l-9.105-85.884a1.932,1.932,0,0,1,.954-1.875l143-82.555a1.931,1.931,0,0,1,1.843-.049,1.934,1.934,0,0,1,1.044,1.518l9.105,85.884a1.931,1.931,0,0,1-.954,1.875l-143,82.555a1.919,1.919,0,0,1-.965.259A1.916,1.916,0,0,1-1748.041,961.576Zm133.166-167-139.344,80.443,3.477,32.768h0l5.187,48.917,139.345-80.443Z" transform="translate(1758.202 -789.485)" fill="#3d3d3d"/>
            </g>
            <g id="Grupo_82435" data-name="Grupo 82435" transform="translate(89.835 116.618)">
              <path id="Trazado_118115" data-name="Trazado 118115" d="M-1710.833,910.8c7.316,0,10.992-6.687,13.943-12.06,2.1-3.822,4.084-7.433,6.534-7.433a18.583,18.583,0,0,1,5.232.9,18.676,18.676,0,0,0,5.112.89c5.4,0,7.231-6.376,9.174-13.126,2.564-8.91,4.841-15.216,10.831-15.216,1.893,0,3.966,1.14,6.162,2.35,2.468,1.358,5.023,2.764,7.792,2.764,10.189,0,10.84-13.046,11.369-23.529.2-4.023.391-7.822,1.095-9.923,2.346-6.988,9.749-11.322,14.648-14.189,3.035-1.779,4.871-2.852,5.433-4.367.506-1.381.919-2.659,1.284-3.785a27.084,27.084,0,0,1,2.185-5.495,1.929,1.929,0,0,0-.678-2.643h0a1.93,1.93,0,0,0-2.643.679,30.264,30.264,0,0,0-2.536,6.273c-.361,1.115-.734,2.268-1.192,3.529a24.139,24.139,0,0,1-3.8,2.479c-5.395,3.16-13.55,7.933-16.356,16.293-.874,2.6-1.068,6.476-1.291,10.958-.565,11.253-1.475,19.862-7.513,19.862-1.778,0-3.794-1.111-5.932-2.286-2.526-1.391-5.138-2.828-8.021-2.828-9.358,0-12.233,9.986-14.54,18.009-1.462,5.08-2.974,10.334-5.464,10.334a15.242,15.242,0,0,1-4.085-.751,22.31,22.31,0,0,0-6.259-1.034c-4.734,0-7.371,4.8-9.916,9.431-2.718,4.945-5.528,10.06-10.561,10.06-3.794,0-8.046-4.172-12.157-8.208-4.489-4.4-9.129-8.959-14.139-8.959-9.36,0-14.143,8.13-17.588,16.092a1.93,1.93,0,0,0,1,2.538,1.93,1.93,0,0,0,2.538-1h0c3.577-8.262,7.333-13.767,14.045-13.767,3.433,0,7.5,3.993,11.435,7.854C-1721.029,906.064-1716.206,910.8-1710.833,910.8Z" transform="translate(1754.872 -805.662)" fill="#3d3d3d"/>
            </g>
            <g id="cogwheel-2" transform="translate(242.662 64.742)">
              <g id="Grupo_82448" data-name="Grupo 82448" transform="translate(1.723 1.724)">
                <g id="Grupo_82436" data-name="Grupo 82436" transform="translate(0 61.318)">
                  <path id="Trazado_118116" data-name="Trazado 118116" d="M-1625.465,822.326l-5.534,7.152,17.837,10.114,5.526-7.152.531-9.4-5.029-1.869-12.858-7.293Z" transform="translate(1630.999 -813.875)" fill="#95989b"/>
                </g>
                <g id="Grupo_82437" data-name="Grupo 82437" transform="translate(0 76.922)">
                  <path id="Trazado_118117" data-name="Trazado 118117" d="M-1631,825.975l2.071,8.239,17.83,10.114-2.063-8.239Z" transform="translate(1630.999 -825.975)" fill="#95989b"/>
                </g>
                <g id="Grupo_82438" data-name="Grupo 82438" transform="translate(1.032 47.656)">
                  <path id="Trazado_118118" data-name="Trazado 118118" d="M-1627.073,803.281l-3.126,10.841,17.829,10.114,3.135-10.841Z" transform="translate(1630.199 -803.281)" fill="#dadee3"/>
                </g>
                <g id="Grupo_82439" data-name="Grupo 82439" transform="translate(4.158 28.218)">
                  <path id="Trazado_118119" data-name="Trazado 118119" d="M-1627.775,807.647l17.837,10.114,6.488-3.2,5.05-9.919-1.634-6.33-17.83-10.106,1.642,6.319-5.058,9.93Z" transform="translate(1627.775 -788.208)" fill="#95989b"/>
                </g>
                <g id="Grupo_82440" data-name="Grupo 82440" transform="translate(10.318 90.64)">
                  <path id="Trazado_118120" data-name="Trazado 118120" d="M-1621.591,836.7l-1.407,4.8,17.83,10.106,1.407-4.783V846.8l.016-.039,1.032-3.533-4.205-5.287-6.5,3.3-8.153-4.627-.016.031-.016.046Z" transform="translate(1622.998 -836.613)" fill="#3b3d3d"/>
                </g>
                <g id="Grupo_82441" data-name="Grupo 82441" transform="translate(14.069 18.908)">
                  <path id="Trazado_118121" data-name="Trazado 118121" d="M-1612.953,780.988l-7.136,9.309,17.83,10.106,7.129-9.3Z" transform="translate(1620.089 -780.988)" fill="#dadee3"/>
                </g>
                <g id="Grupo_82442" data-name="Grupo 82442" transform="translate(17.837 10.118)">
                  <path id="Trazado_118122" data-name="Trazado 118122" d="M-1589.8,809.959c-6.542,8.543-9.841,18.925-9.123,26.823a15.134,15.134,0,0,0,2.939,8.175,9.8,9.8,0,0,0,8.676,3.666,16.218,16.218,0,0,0,4.7-1.079c4.628-1.751,9.552-5.572,13.842-11.163,6.949-9.073,10.231-20.213,8.934-28.279a15.681,15.681,0,0,0-1.419-4.6,11.325,11.325,0,0,0-1.336-2.119c-3.4-4.275-9-4.729-14.9-1.946A34.838,34.838,0,0,0-1589.8,809.959Zm-21.308,24.575-5.029-1.867,3.134-10.841,6.488-3.2,5.05-9.918-1.634-6.332,7.127-9.3,4.971,1.977,7.661-6.652,2.377-8.363,8.411-4.213,1.555,6.4,7.323-.852.219-.288.008-.008,5.26-6.91,6.473,2.494-2.45,8.382,4.205,5.287,6.488-3.306,2.071,8.239-5.527,7.151-.524,9.4,5.018,1.867-3.134,10.829-6.488,3.206-5.056,9.919,1.641,6.319-7.137,9.3-4.962-1.978-7.652,6.653-2.384,8.363-8.411,4.213-1.547-6.395-7.323.845-5.5,7.206-6.471-2.494,1.406-4.784v-.01l.017-.039,1.031-3.533-4.205-5.287-6.5,3.3-2.063-8.239,5.527-7.151Z" transform="translate(1617.167 -774.172)" fill="#fff"/>
                </g>
                <g id="Grupo_82443" data-name="Grupo 82443" transform="translate(21.206 5.861)">
                  <path id="Trazado_118123" data-name="Trazado 118123" d="M-1614.555,783.918l17.822,10.114,4.971,1.977,7.66-6.652,2.377-8.364-17.837-10.122-2.377,8.372-7.645,6.652Z" transform="translate(1614.555 -770.871)" fill="#95989b"/>
                </g>
                <g id="Grupo_82444" data-name="Grupo 82444" transform="translate(36.202 1.657)">
                  <path id="Trazado_118124" data-name="Trazado 118124" d="M-1585.359,772.8l-9.156-5.19-8.411,4.205,17.838,10.122,8.41-4.213Z" transform="translate(1602.926 -767.611)" fill="#dadee3"/>
                </g>
                <g id="Grupo_82445" data-name="Grupo 82445" transform="translate(36.08 33.642)">
                  <path id="Trazado_118125" data-name="Trazado 118125" d="M-1603.021,831.5a15.13,15.13,0,0,0,2.939,8.175,9.8,9.8,0,0,0,8.676,3.668,16.224,16.224,0,0,0,4.7-1.079c4.628-1.751,9.552-5.572,13.842-11.163,6.949-9.073,10.231-20.213,8.934-28.279a15.663,15.663,0,0,0-1.419-4.6,11.313,11.313,0,0,0-1.336-2.119c-3.4-4.275-9-4.729-14.9-1.946.726,7.918-2.565,18.282-9.115,26.823A34.9,34.9,0,0,1-1603.021,831.5Z" transform="translate(1603.021 -792.414)" fill="#61646a"/>
                </g>
                <g id="Grupo_82446" data-name="Grupo 82446" transform="translate(53.769)">
                  <path id="Trazado_118126" data-name="Trazado 118126" d="M-1584.09,766.326l-5.214,6.848,8.676,4.925,1.555,6.4,7.323-.852.219-.289.008-.008,5.26-6.91,6.472,2.493-17.837-10.114Z" transform="translate(1589.304 -766.326)" fill="#95989b"/>
                </g>
                <g id="Grupo_82447" data-name="Grupo 82447" transform="translate(80.828 17.102)">
                  <path id="Trazado_118127" data-name="Trazado 118127" d="M-1567.187,779.588l-1.134,3.884,4.205,5.287,6.488-3.307Z" transform="translate(1568.321 -779.588)" fill="#95989b"/>
                </g>
              </g>
              <g id="Grupo_82462" data-name="Grupo 82462">
                <g id="Grupo_82449" data-name="Grupo 82449" transform="translate(17.839 10.128)">
                  <path id="Trazado_118128" data-name="Trazado 118128" d="M-1600.62,874.17l-6.471-2.494a1.723,1.723,0,0,1-1.032-2.093l1.4-4.755c.009-.037.02-.076.032-.111l.774-2.645-2.775-3.482-5.243,2.663a1.718,1.718,0,0,1-1.493.031,1.721,1.721,0,0,1-.957-1.148l-2.063-8.238a1.724,1.724,0,0,1,.308-1.471l5.2-6.729.431-7.6-3.843-1.426a1.723,1.723,0,0,1-1.055-2.093l3.134-10.841a1.732,1.732,0,0,1,.894-1.067l5.974-2.944,4.493-8.828-1.47-5.7a1.728,1.728,0,0,1,.3-1.478l7.129-9.3a1.722,1.722,0,0,1,2-.553l4,1.59,6.481-5.628,2.236-7.866a1.725,1.725,0,0,1,.885-1.069l8.411-4.213a1.724,1.724,0,0,1,1.5-.023,1.728,1.728,0,0,1,.948,1.161l1.2,4.921,5.085-.591,5.042-6.625a1.721,1.721,0,0,1,1.99-.564l6.472,2.494a1.723,1.723,0,0,1,1.032,2.09l-2.2,7.522,2.773,3.482,5.236-2.668a1.715,1.715,0,0,1,1.494-.034,1.721,1.721,0,0,1,.957,1.148l2.072,8.238a1.729,1.729,0,0,1-.308,1.473l-5.2,6.729-.423,7.608,3.829,1.426a1.723,1.723,0,0,1,1.053,2.09l-3.127,10.841a1.719,1.719,0,0,1-.892,1.066l-5.976,2.952-4.5,8.828,1.478,5.691a1.725,1.725,0,0,1-.3,1.48l-7.137,9.3a1.722,1.722,0,0,1-2,.552l-3.99-1.59-6.474,5.628-2.243,7.866a1.727,1.727,0,0,1-.885,1.068l-8.411,4.213a1.715,1.715,0,0,1-1.5.022,1.719,1.719,0,0,1-.948-1.161l-1.19-4.915-5.084.587-5.05,6.625a1.717,1.717,0,0,1-1.371.677A1.7,1.7,0,0,1-1600.62,874.17Zm15.113-10.059,1.039,4.29,5.8-2.9,2.176-7.636a1.73,1.73,0,0,1,.527-.828l7.653-6.652a1.726,1.726,0,0,1,1.766-.3l3.753,1.5,5.832-7.6-1.43-5.509a1.729,1.729,0,0,1,.129-1.216l5.057-9.919a1.723,1.723,0,0,1,.773-.761l5.8-2.869,2.475-8.577-3.522-1.311a1.719,1.719,0,0,1-1.118-1.71l.524-9.4a1.724,1.724,0,0,1,.356-.957l5.015-6.491-1.341-5.332-4.563,2.321a1.718,1.718,0,0,1-2.129-.463l-4.205-5.287a1.724,1.724,0,0,1-.306-1.557l2.009-6.858-3.788-1.459-4.477,5.882c-.012.017-.026.032-.039.049l-.183.244a1.723,1.723,0,0,1-1.175.673l-7.325.851a1.722,1.722,0,0,1-1.872-1.3l-1.044-4.3-5.8,2.906-2.169,7.633a1.722,1.722,0,0,1-.527.831l-7.656,6.661a1.721,1.721,0,0,1-1.765.3l-3.76-1.5-5.825,7.608,1.418,5.518a1.723,1.723,0,0,1-.129,1.212l-5.05,9.919a1.716,1.716,0,0,1-.773.763l-5.8,2.86-2.479,8.574,3.535,1.312a1.723,1.723,0,0,1,1.119,1.711l-.531,9.4a1.72,1.72,0,0,1-.356.957l-5.016,6.49,1.336,5.332,4.569-2.321a1.726,1.726,0,0,1,2.128.463l4.205,5.287a1.724,1.724,0,0,1,.306,1.555l-1.032,3.532v.015l-.013.044-.958,3.26,3.785,1.459,4.712-6.18a1.726,1.726,0,0,1,1.172-.667l7.325-.843a1.715,1.715,0,0,1,.2-.012,1.722,1.722,0,0,1,1.665,1.3Z" transform="translate(1618.502 -772.843)" fill="#3b3d3d"/>
                </g>
                <g id="Grupo_82450" data-name="Grupo 82450" transform="translate(35.984 33.657)">
                  <path id="Trazado_118129" data-name="Trazado 118129" d="M-1601.019,841.137a16.709,16.709,0,0,1-3.309-9.094c-.774-8.64,2.85-19.382,9.471-28.028a36.455,36.455,0,0,1,12.946-11.023c6.855-3.224,13.2-2.315,16.979,2.432a12.911,12.911,0,0,1,1.527,2.417,17.391,17.391,0,0,1,1.585,5.1c1.419,8.783-2.223,20.4-9.268,29.6-4.326,5.634-9.51,9.8-14.593,11.721a17.944,17.944,0,0,1-5.2,1.189q-.485.031-.959.031A11.3,11.3,0,0,1-1601.019,841.137Zm20.573-45.029h0a33.515,33.515,0,0,0-11.677,10c-6.025,7.866-9.469,17.925-8.769,25.624a13.378,13.378,0,0,0,2.571,7.258,8.035,8.035,0,0,0,7.212,3.02,14.467,14.467,0,0,0,4.205-.967c4.5-1.7,9.144-5.465,13.085-10.6,6.5-8.483,9.872-19.065,8.6-26.965a14.006,14.006,0,0,0-1.272-4.114,9.591,9.591,0,0,0-1.135-1.8,8.022,8.022,0,0,0-6.533-3.041,14.965,14.965,0,0,0-6.289,1.576Z" transform="translate(1604.431 -791.089)" fill="#3b3d3d"/>
                </g>
                <g id="Grupo_82451" data-name="Grupo 82451" transform="translate(36.078 35.393)">
                  <path id="Trazado_118130" data-name="Trazado 118130" d="M-1602.642,833.22a1.752,1.752,0,0,0,.741-.164,36.539,36.539,0,0,0,12.953-11.023c6.626-8.64,10.251-19.373,9.464-28.012a1.727,1.727,0,0,0-1.717-1.586,1.719,1.719,0,0,0-1.721,1.714v.012a1.3,1.3,0,0,0,.006.157c.706,7.7-2.735,17.753-8.769,25.621a33.172,33.172,0,0,1-11.642,9.983,1.724,1.724,0,0,0-1.032,1.578A1.719,1.719,0,0,0-1602.642,833.22Z" transform="translate(1604.358 -792.435)" fill="#3b3d3d"/>
                </g>
                <g id="Grupo_82452" data-name="Grupo 82452" transform="translate(10.333 90.664)">
                  <path id="Trazado_118131" data-name="Trazado 118131" d="M-1604.788,853.713a1.722,1.722,0,0,0,1.5-.873,1.723,1.723,0,0,0-.645-2.347l-16.636-9.433,1.023-3.49a1.677,1.677,0,0,0,.046-.2,1.737,1.737,0,0,0-.9-1.888,1.708,1.708,0,0,0-2.3.736l-.007.012-.017.031a1.9,1.9,0,0,0-.1.231c-.021.065-.039.132-.053.2l-1.381,4.709a1.726,1.726,0,0,0,.8,1.982l17.83,10.106A1.7,1.7,0,0,0-1604.788,853.713Z" transform="translate(1624.323 -835.295)" fill="#3b3d3d"/>
                </g>
                <g id="Grupo_82453" data-name="Grupo 82453" transform="translate(53.728)">
                  <path id="Trazado_118132" data-name="Trazado 118132" d="M-1559.4,781.044a1.718,1.718,0,0,0,1.5-.873,1.721,1.721,0,0,0-.644-2.347h0l-17.836-10.114a1.624,1.624,0,0,0-.23-.11l-6.463-2.494a1.723,1.723,0,0,0-1.991.564l-5.26,6.909a1.722,1.722,0,0,0,.328,2.413h0a1.721,1.721,0,0,0,2.413-.328h0l4.477-5.88,5.139,1.981,17.726,10.052A1.728,1.728,0,0,0-1559.4,781.044Z" transform="translate(1590.672 -764.989)" fill="#3b3d3d"/>
                </g>
                <g id="Grupo_82454" data-name="Grupo 82454" transform="translate(1.036 1.66)">
                  <path id="Trazado_118133" data-name="Trazado 118133" d="M-1611.986,836.676a1.722,1.722,0,0,0,1.5-.873,1.723,1.723,0,0,0-.645-2.347l-16.647-9.445,2.538-8.8,5.812-2.862a1.718,1.718,0,0,0,.774-.763l5.058-9.93a1.723,1.723,0,0,0,.129-1.215l-1.43-5.5,5.832-7.609,3.762,1.5a1.724,1.724,0,0,0,1.767-.3l7.643-6.652a1.715,1.715,0,0,0,.526-.829l2.169-7.641,6.909-3.456,17.039,9.661a1.72,1.72,0,0,0,2.347-.645,1.723,1.723,0,0,0-.645-2.347l-17.836-10.114a1.725,1.725,0,0,0-1.618-.043l-8.412,4.207a1.721,1.721,0,0,0-.884,1.069l-2.237,7.879L-1605,785.24l-4-1.59a1.722,1.722,0,0,0-2,.552l-7.136,9.309a1.725,1.725,0,0,0-.3,1.48l1.478,5.683-4.5,8.834-5.981,2.944a1.721,1.721,0,0,0-.9,1.068l-3.126,10.841a1.722,1.722,0,0,0,.8,1.974l17.829,10.114A1.7,1.7,0,0,0-1611.986,836.676Z" transform="translate(1631.531 -766.277)" fill="#3b3d3d"/>
                </g>
                <g id="Grupo_82455" data-name="Grupo 82455" transform="translate(36.2 5.863)">
                  <path id="Trazado_118134" data-name="Trazado 118134" d="M-1584.708,783.1a1.718,1.718,0,0,0,1.5-.873,1.722,1.722,0,0,0-.645-2.347l-17.837-10.123a1.724,1.724,0,0,0-2.347.645,1.722,1.722,0,0,0,.645,2.348h0l17.832,10.128A1.717,1.717,0,0,0-1584.708,783.1Z" transform="translate(1604.263 -769.536)" fill="#3b3d3d"/>
                </g>
                <g id="Grupo_82456" data-name="Grupo 82456" transform="translate(21.209 18.91)">
                  <path id="Trazado_118135" data-name="Trazado 118135" d="M-1596.35,793.213a1.719,1.719,0,0,0,1.5-.873,1.721,1.721,0,0,0-.644-2.347h0l-17.821-10.114a1.724,1.724,0,0,0-2.347.645,1.722,1.722,0,0,0,.645,2.348h0l17.822,10.114A1.712,1.712,0,0,0-1596.35,793.213Z" transform="translate(1615.888 -779.653)" fill="#3b3d3d"/>
                </g>
                <g id="Grupo_82457" data-name="Grupo 82457" transform="translate(14.074 28.218)">
                  <path id="Trazado_118136" data-name="Trazado 118136" d="M-1601.876,800.422a1.721,1.721,0,0,0,1.5-.873,1.723,1.723,0,0,0-.645-2.347l-17.828-10.106a1.725,1.725,0,0,0-2.348.645,1.724,1.724,0,0,0,.645,2.347l17.83,10.106A1.713,1.713,0,0,0-1601.876,800.422Z" transform="translate(1621.421 -786.871)" fill="#3b3d3d"/>
                </g>
                <g id="Grupo_82458" data-name="Grupo 82458" transform="translate(4.162 47.657)">
                  <path id="Trazado_118137" data-name="Trazado 118137" d="M-1609.553,815.506a1.72,1.72,0,0,0,1.5-.873,1.721,1.721,0,0,0-.643-2.347h0l-17.837-10.114a1.72,1.72,0,0,0-2.346.644h0a1.722,1.722,0,0,0,.645,2.347l17.837,10.114A1.7,1.7,0,0,0-1609.553,815.506Z" transform="translate(1629.108 -801.945)" fill="#3b3d3d"/>
                </g>
                <g id="Grupo_82459" data-name="Grupo 82459" transform="translate(0.003 76.925)">
                  <path id="Trazado_118138" data-name="Trazado 118138" d="M-1612.777,838.2a1.72,1.72,0,0,0,1.5-.873,1.722,1.722,0,0,0-.645-2.347l-17.838-10.114a1.723,1.723,0,0,0-2.347.645,1.722,1.722,0,0,0,.645,2.348h0l17.836,10.114A1.709,1.709,0,0,0-1612.777,838.2Z" transform="translate(1632.332 -824.641)" fill="#3b3d3d"/>
                </g>
                <g id="Grupo_82460" data-name="Grupo 82460" transform="translate(0 61.32)">
                  <path id="Trazado_118139" data-name="Trazado 118139" d="M-1610.714,849.94a1.718,1.718,0,0,0,1.5-.873,1.723,1.723,0,0,0-.645-2.347l-17.193-9.753-1.688-6.712,5.023-6.49a1.727,1.727,0,0,0,.357-.958l.468-8.449a1.721,1.721,0,0,0-1.624-1.814h0a1.733,1.733,0,0,0-1.814,1.625l-.438,7.914-5.207,6.729a1.731,1.731,0,0,0-.308,1.474l2.071,8.238a1.725,1.725,0,0,0,.821,1.078l17.828,10.114A1.705,1.705,0,0,0-1610.714,849.94Z" transform="translate(1632.335 -812.54)" fill="#3b3d3d"/>
                </g>
                <g id="Grupo_82461" data-name="Grupo 82461" transform="translate(81.963 17.104)">
                  <path id="Trazado_118140" data-name="Trazado 118140" d="M-1557.5,787.56a1.72,1.72,0,0,0,1.47-.823,1.722,1.722,0,0,0-.569-2.369l-9.56-5.862a1.724,1.724,0,0,0-2.368.569,1.724,1.724,0,0,0,.567,2.369l9.561,5.861A1.709,1.709,0,0,0-1557.5,787.56Z" transform="translate(1568.777 -778.253)" fill="#3b3d3d"/>
                </g>
              </g>
            </g>
          </g>
        </g>
        <g id="Group_132280" data-name="Group 132280" transform="translate(21 -4)">
          <g id="Grupo_82384" data-name="Grupo 82384" transform="translate(-1755.736 1109.091)">
            <path id="Trazado_118064" data-name="Trazado 118064" d="M-1643.425,1093.367c-10.632-7.359-23.394-12.414-35.594-5.372a19.435,19.435,0,0,0-8.7,21.376,22.535,22.535,0,0,0,1.087,3.446,51.9,51.9,0,0,1-11.843,3.956c-11.753,2.264-23.653-1.9-34.656-5.493-3.743-1.226-8.27,2.863-6.76,6.76,7.091,18.31,25.775,27.725,44.466,30,22.7,2.768,39.624-8.095,56.188-22.185C-1628.344,1116.594-1633.355,1100.34-1643.425,1093.367Z" transform="translate(1740.188 -1084.622)" fill="#d6dade"/>
          </g>
          <g id="Grupo_82399" data-name="Grupo 82399" transform="translate(-1722.957 1077.478)">
            <path id="Trazado_118079" data-name="Trazado 118079" d="M-1720.2,1071.716l41.525,44.153-41.525,23.974Z" transform="translate(1720.201 -1071.716)" fill="#3d3d3d"/>
          </g>
          <g id="Grupo_82412" data-name="Grupo 82412" transform="translate(-1767.584 1074.363)">
            <path id="Trazado_118092" data-name="Trazado 118092" d="M-1702.607,1143.887l-41.505-23.974a3.125,3.125,0,0,1-1.526-2.248,3.123,3.123,0,0,1,.813-2.592l41.506-44.153a3.13,3.13,0,0,1,2.278-.983h0a3.13,3.13,0,0,1,2.278.983l41.525,44.153a3.13,3.13,0,0,1,.813,2.593,3.118,3.118,0,0,1-1.527,2.248l-41.524,23.974a3.126,3.126,0,0,1-1.56.419A3.13,3.13,0,0,1-1702.607,1143.887Zm1.561-66.279-36.537,38.869,36.537,21.1,36.551-21.1Z" transform="translate(1745.672 -1069.938)" fill="#3d3d3d"/>
          </g>
          <g id="Grupo_82413" data-name="Grupo 82413" transform="translate(-1726.075 1074.361)">
            <path id="Trazado_118093" data-name="Trazado 118093" d="M-1718.862,1144.305a3.119,3.119,0,0,0,3.119-3.119v-68.131a3.119,3.119,0,0,0-3.119-3.119h0a3.119,3.119,0,0,0-3.119,3.119h0v68.131a3.119,3.119,0,0,0,3.119,3.119Z" transform="translate(1721.981 -1069.937)" fill="#3d3d3d"/>
          </g>
        </g>
      </g>
    </g>
  </g>
</svg>
